<?xml version="1.0" standalone="yes"?><svg xmlns="http://www.w3.org/2000/svg" viewBox="0 0 351 111.8" style="zoom: 1;"><defs><style>.a { fill: #2e3192; } .b { fill: #fff; }</style></defs><polyline class="a" points="6.900415,-43.243904 63.800407,-68.543892 120.800537,-43.643909 120.800537,-43.243904 120.800537,43.256134 6.900415,43.256134 6.900415,-43.243904 "></polyline><path d="M46.800407,-19.443913 c-.1,-1.3 -.5,-3.6 -1.2,-3.9 c-6.9,-2.5 -4.3,-7.4 -3.6,-12.2 H67.200401 c.4,4.5 3.7,9.6 -3.4,12 c-.7,.3 -1.3,1.9 -1.3,2.9 c-.1,6.5 -.1,13 -.1,20.1 H87.600464 c0,-7.1 0,-14 -.1,-20.9 a2.7,2.7 0 0 0 -1.1,-2 c-7,-2.3 -4.4,-7.4 -3.6,-12.1 H107.90052 c.5,4.5 3.7,9.4 -3.2,12.1 c-.9,.3 -1.4,2.5 -1.4,3.8 V30.156082 c0,1.3 .4,3.6 1.2,3.9 c6.8,2.5 4.2,7.5 3.5,12.2 H82.800438 c-.4,-4.5 -3.7,-9.6 3.4,-12 c.7,-.3 1.3,-1.9 1.3,-2.9 c.2,-6.5 .1,-13 .1,-20.1 H62.400398 c0,7.1 0,14 .1,20.9 a2.7,2.7 0 0 0 1.1,2 c7,2.3 4.4,7.4 3.7,12.2 H42.10041 c-.5,-4.6 -3.7,-9.5 3.3,-12.2 c.8,-.3 1.3,-2.5 1.3,-3.8  Z " transform="translate(-11.1 -9)" class="b"></path></svg>