<svg xmlns="http://www.w3.org/2000/svg" viewBox="0 0 351 111.8">
  <defs>
    <style>
      .a {
        fill: #2e3192;
      }

      .b {
        fill: #fff;
      }
    </style>
  </defs>
  <title>heimv2</title>
  <polyline class="a" points="0 25.3 56.9 0 113.9 24.9 113.9 25.3 113.9 111.8 0 111.8 0 25.3"/>
  <g>
    <path d="M222.4,114.8H197.8c-.9-4.7-2.9-9.3,3.6-11.7.7-.2,1.1-2.2,1.1-3.4.1-8.3.2-16.6,0-25-.1-1.4-1.2-3.6-2.4-4.1-4.7-2-3.8-5.8-2.6-8.8s3.6-3.1,5.6-3.3c4.1-.6,8.3-.2,12.8-.2.2,1.5.5,3,.9,4.9,10.5-6.1,20.9-7.1,31.1,1.3,6.6-4.9,14-7.1,22.4-5.5,6.9,1.3,11.6,4.9,12.3,11.8,1,8.8,1.1,17.6,1.3,26.4.1,3.3.2,5.8,3.8,7.7s1.1,6.3,1.4,9.9H264.2c-1-4.6-3-9.1,3.3-11.6.8-.3,1.3-2.2,1.3-3.4.1-7.1.1-14.3,0-21.5,0-3.4-.7-6.7-4.8-7.7a13.7,13.7,0,0,0-12.6,2.9c-.6.5-.6,1.8-.6,2.8.1,7.8.2,15.6.4,23.5.1,1.1.5,3.1,1.2,3.4,6.5,2.4,4.6,6.9,3.5,11.7H231.2c-.8-4.7-3.1-9.4,3.5-11.7.7-.2,1.3-1.9,1.3-2.8.1-7.7.2-15.4-.2-23-.3-5.7-3.1-7.6-9.1-7.2s-8.9,2.8-8.9,8.1c0,7-.1,14,0,21,.1,1.3.5,3.5,1.3,3.9C225.4,105.7,223.7,110.2,222.4,114.8Z" transform="translate(-11.1 -9)"/>
    <path class="b" d="M55.5,68.5H80.7" transform="translate(-11.1 -9)"/>
    <path d="M323.6,85.6a3.9,3.9,0,0,0,7.5,0c.9-3.5,1.8-6.8,2.8-10.2,1.9-6.9,4-13.7,6.2-21.1a3.8,3.8,0,0,0-1.8-4.5c-3.3-1.8-3.2-4.9-2.4-8.3a3.9,3.9,0,0,1,3.8-3h18.2a3.8,3.8,0,0,1,3.7,2.9c1.2,4.9.3,5.5-5.4,9.7-1.3.9-2.1,2.9-2.6,4.5-6.1,18.3-12.2,36.7-18,55.1-1.1,3.6-2.8,5-6.6,4.9-9.9-.2-9.9,0-13.1-9.7C310.3,89,304.8,72,299.2,55.1c-.5-1.5-1.1-3.9-2.1-4.3-5.7-1.8-5.6-5.3-4.9-9.2a3.9,3.9,0,0,1,3.8-3.1h18.9a3.9,3.9,0,0,1,3.8,3c.8,3.4,1.5,6.7-3.6,8.9-.6.2-.6,2.9-.2,4.3,2.8,10.3,5.9,20.5,8.7,30.8Z" transform="translate(-11.1 -9)"/>
    <path d="M125.6,90.5c.2,13,7.4,15.6,27.5,10.6a44.7,44.7,0,0,0,1.9,4.6c1.7,3.1.2,4.9-2.5,6.3a36.1,36.1,0,0,1-28.6,1.8,20.8,20.8,0,0,1-5.6-3.2c-9.5-7.4-11.9-27.9-4.7-40.3,5.7-10,20.3-14.6,32.1-10.3,8.9,3.3,15.2,17.9,10.8,26.5-1,2-4.7,3.6-7.2,3.8C141.5,90.8,133.7,90.5,125.6,90.5Zm.1-9.5H143c1.4-6.9-.6-10.5-5.8-11.4S126.6,72.3,125.7,81Z" transform="translate(-11.1 -9)"/>
    <path d="M189.8,114.9H165.4c-.9-4.4-3.5-9,3-11.6.9-.4,1.6-2.4,1.6-3.6.2-8.4.2-16.7,0-25,0-1.4-1.2-3.6-2.4-4.1-4.6-2-3.9-5.7-2.7-8.8s3.5-3.2,5.5-3.4c4.6-.5,9.3-.1,14.8-.1v6.9c0,11.3-.1,22.6,0,33.9,0,1.4.3,3.7,1.1,3.9C192.5,105.4,191.1,109.9,189.8,114.9Z" transform="translate(-11.1 -9)"/>
    <path d="M177.2,51.1c-6,0-8.9-2.8-8.8-8.3s3.1-8,9.3-7.9,8.9,3,8.8,8.4S183.2,51.2,177.2,51.1Z" transform="translate(-11.1 -9)"/>
  </g>
  <path class="b" d="M39.9,49.1c-.1-1.3-.5-3.6-1.2-3.9-6.9-2.5-4.3-7.4-3.6-12.2H60.3c.4,4.5,3.7,9.6-3.4,12-.7.3-1.3,1.9-1.3,2.9-.1,6.5-.1,13-.1,20.1H80.7c0-7.1,0-14-.1-20.9a2.7,2.7,0,0,0-1.1-2c-7-2.3-4.4-7.4-3.6-12.1H101c.5,4.5,3.7,9.4-3.2,12.1-.9.3-1.4,2.5-1.4,3.8V98.7c0,1.3.4,3.6,1.2,3.9,6.8,2.5,4.2,7.5,3.5,12.2H75.9c-.4-4.5-3.7-9.6,3.4-12,.7-.3,1.3-1.9,1.3-2.9.2-6.5.1-13,.1-20.1H55.5c0,7.1,0,14,.1,20.9a2.7,2.7,0,0,0,1.1,2c7,2.3,4.4,7.4,3.7,12.2H35.2c-.5-4.6-3.7-9.5,3.3-12.2.8-.3,1.3-2.5,1.3-3.8Z" transform="translate(-11.1 -9)"/>
</svg>
