<?xml version="1.0" standalone="no"?><!DOCTYPE svg PUBLIC "-//W3C//DTD SVG 1.1//EN" "http://www.w3.org/Graphics/SVG/1.1/DTD/svg11.dtd" ><svg version="1.1" xmlns="http://www.w3.org/2000/svg"><defs><font horiz-adv-x="0" id="font"><font-face ascent="800" bbox="-82 -305 730 1099" cap-height="701" descent="-200" font-family="OCR-B" font-stretch="normal" font-style="normal" font-weight="400" units-per-em="1000" x-height="534" /><missing-glyph horiz-adv-x="649" /><glyph d="M490 27C495 7 509 -10 532 -10C559 -10 575 14 563 57L400 620C387 665 369 707 323 707C277 707 258 666 245 619L86 61C73 14 90 -10 117 -10C140 -10 152 7 158 27L324 611ZM182 289V209H451V289Z" glyph-name="A" horiz-adv-x="649" unicode="A" /><glyph d="M357 701C281 701 244 662 218 597L0 61C-19 14 -2 -10 25 -10C48 -10 64 7 72 27L308 611ZM116 289V209H313V289ZM297 51C297 23 320 1 347 1H579C606 1 629 13 629 41C629 69 607 81 579 81H377V326H531C559 326 581 339 581 366C581 393 558 406 531 406H377V621H579C606 621 629 633 629 661C629 689 607 701 579 701H347C329 701 297 679 297 651Z" glyph-name="AE" horiz-adv-x="649" unicode="&#198;" /><glyph d="M357 701C281 701 244 662 218 597L0 61C-19 14 -2 -10 25 -10C48 -10 64 7 72 27L308 611ZM116 289V209H313V289ZM297 51C297 23 320 1 347 1H579C606 1 629 13 629 41C629 69 607 81 579 81H377V326H531C559 326 581 339 581 366C581 393 558 406 531 406H377V621H579C606 621 629 633 629 661C629 689 607 701 579 701H347C329 701 297 679 297 651ZM305 789C305 765 325 747 347 747C358 747 373 756 378 764L447 861C452 868 454 876 454 884C454 907 435 927 412 927C401 927 387 919 378 906L313 813C308 806 305 798 305 789Z" glyph-name="AEacute" horiz-adv-x="649" unicode="&#508;" /><glyph d="M490 27C495 7 509 -10 532 -10C559 -10 575 14 563 57L400 620C387 665 369 707 323 707C277 707 258 666 245 619L86 61C73 14 90 -10 117 -10C140 -10 152 7 158 27L324 611ZM182 289V209H451V289ZM278 783C278 759 298 741 320 741C331 741 346 750 351 758L420 855C425 862 427 870 427 878C427 901 408 921 385 921C374 921 360 913 351 900L286 807C281 800 278 792 278 783Z" glyph-name="Aacute" horiz-adv-x="649" unicode="&#193;" /><glyph d="M490 27C495 7 509 -10 532 -10C559 -10 575 14 563 57L400 620C387 665 369 707 323 707C277 707 258 666 245 619L86 61C73 14 90 -10 117 -10C140 -10 152 7 158 27L324 611ZM182 289V209H451V289ZM323 773C413 773 485 841 485 916C485 934 470 950 451 950C433 950 419 936 417 918C413 883 377 841 323 841C269 841 234 883 229 918C228 936 214 950 195 950C176 950 161 935 161 916C161 841 234 773 323 773Z" glyph-name="Abreve" horiz-adv-x="649" unicode="&#258;" /><glyph d="M490 27C495 7 509 -10 532 -10C559 -10 575 14 563 57L400 620C387 665 369 707 323 707C277 707 258 666 245 619L86 61C73 14 90 -10 117 -10C140 -10 152 7 158 27L324 611ZM182 289V209H451V289ZM177 789C177 775 190 765 205 765C213 765 220 767 225 772L318 858L412 772C418 767 425 765 433 765C448 765 461 776 461 789C461 794 459 799 456 803L340 956C335 961 326 963 318 963C311 963 304 961 298 956L182 803C179 799 177 794 177 789Z" glyph-name="Acircumflex" horiz-adv-x="649" unicode="&#194;" /><glyph d="M86 666C86 638 103 616 126 616C149 616 166 639 166 666V723C166 750 149 773 126 773C103 773 86 751 86 723ZM486 666C486 638 502 616 526 616C550 616 566 639 566 666V723C566 750 549 773 526 773C503 773 486 751 486 723ZM490 27C495 7 509 -10 532 -10C559 -10 575 14 563 57L400 620C387 665 369 707 323 707C277 707 258 666 245 619L86 61C73 14 90 -10 117 -10C140 -10 152 7 158 27L324 611ZM182 289V209H451V289Z" glyph-name="Adieresis" horiz-adv-x="649" unicode="&#196;" /><glyph d="M490 27C495 7 509 -10 532 -10C559 -10 575 14 563 57L400 620C387 665 369 707 323 707C277 707 258 666 245 619L86 61C73 14 90 -10 117 -10C140 -10 152 7 158 27L324 611ZM182 289V209H451V289ZM367 788C367 764 347 746 325 746C314 746 299 755 294 763L225 860C220 867 218 875 218 883C218 906 237 926 260 926C271 926 285 918 294 905L359 812C364 805 367 797 367 788Z" glyph-name="Agrave" horiz-adv-x="649" unicode="&#192;" /><glyph d="M490 27C495 7 509 -10 532 -10C559 -10 575 14 563 57L400 620C387 665 369 707 323 707C277 707 258 666 245 619L86 61C73 14 90 -10 117 -10C140 -10 152 7 158 27L324 611ZM182 289V209H451V289ZM132 821C132 799 149 781 170 781H459C480 781 498 799 498 821C498 841 479 859 459 859H170C150 859 132 841 132 821Z" glyph-name="Amacron" horiz-adv-x="649" unicode="&#256;" /><glyph d="M490 27C495 7 509 -10 532 -10C559 -10 575 14 563 57L400 620C387 665 369 707 323 707C277 707 258 666 245 619L86 61C73 14 90 -10 117 -10C140 -10 152 7 158 27L324 611ZM182 289V209H451V289ZM533 -215C555 -215 573 -201 573 -178C573 -157 555 -140 523 -140H448L555 -4C566 10 575 39 554 55C535 70 506 60 497 48L357 -149C347 -163 345 -173 345 -180C345 -198 362 -215 381 -215Z" glyph-name="Aogonek" horiz-adv-x="649" unicode="&#260;" /><glyph d="M490 27C495 7 509 -10 532 -10C559 -10 575 14 563 57L400 620C387 665 369 707 323 707C277 707 258 666 245 619L86 61C73 14 90 -10 117 -10C140 -10 152 7 158 27L324 611ZM182 289V209H451V289ZM323 641C395 641 444 697 444 763C444 829 395 885 323 885C249 885 202 829 202 763C202 697 251 641 323 641ZM323 819C353 819 375 796 375 763C375 731 353 705 323 705C291 705 268 731 268 763C268 796 291 819 323 819Z" glyph-name="Aring" horiz-adv-x="649" unicode="&#197;" /><glyph d="M275 961C275 937 295 919 317 919C328 919 343 928 348 936L417 1033C422 1040 424 1048 424 1056C424 1079 405 1099 382 1099C371 1099 357 1091 348 1078L283 985C278 978 275 970 275 961ZM490 27C495 7 509 -10 532 -10C559 -10 575 14 563 57L400 620C387 665 369 707 323 707C277 707 258 666 245 619L86 61C73 14 90 -10 117 -10C140 -10 152 7 158 27L324 611ZM182 289V209H451V289ZM323 641C395 641 444 697 444 763C444 829 395 885 323 885C249 885 202 829 202 763C202 697 251 641 323 641ZM323 819C353 819 375 796 375 763C375 731 353 705 323 705C291 705 268 731 268 763C268 796 291 819 323 819Z" glyph-name="Aringacute" horiz-adv-x="649" unicode="&#506;" /><glyph d="M490 27C495 7 509 -10 532 -10C559 -10 575 14 563 57L400 620C387 665 369 707 323 707C277 707 258 666 245 619L86 61C73 14 90 -10 117 -10C140 -10 152 7 158 27L324 611ZM182 289V209H451V289ZM142 836C142 815 159 797 181 797C199 797 215 811 218 829C222 847 234 855 246 855C264 855 286 841 300 830C326 811 354 793 386 789C390 789 393 788 397 788C449 788 494 825 504 877C505 880 506 883 506 884C506 906 487 923 467 923C449 923 433 909 429 893C425 872 415 866 402 866C384 866 361 880 347 891C322 910 293 929 261 932C258 932 255 933 250 933C199 933 153 895 142 844Z" glyph-name="Atilde" horiz-adv-x="649" unicode="&#195;" /><glyph d="M118 71C118 23 141 1 188 1H268C443 1 547 76 547 201C547 272 509 339 442 366C503 392 526 452 526 502C526 626 436 701 268 701H188C140 701 118 679 118 631ZM198 81V322H297C397 322 457 289 457 200C457 109 355 81 268 81ZM198 400V623H268C385 623 443 583 443 514C443 436 384 400 297 400Z" glyph-name="B" horiz-adv-x="649" unicode="B" /><glyph d="M360 -13C458 -13 544 61 544 119C544 144 527 156 510 156C462 156 458 67 360 67C240 67 193 190 193 361C193 517 255 636 360 636C460 636 440 547 490 547C507 547 529 562 529 586C529 645 465 717 361 716C185 713 113 536 113 353C113 163 175 -13 360 -13Z" glyph-name="C" horiz-adv-x="649" unicode="C" /><glyph d="M360 -13C458 -13 544 61 544 119C544 144 527 156 510 156C462 156 458 67 360 67C240 67 193 190 193 361C193 517 255 636 360 636C460 636 440 547 490 547C507 547 529 562 529 586C529 645 465 717 361 716C185 713 113 536 113 353C113 163 175 -13 360 -13ZM300 801C300 777 320 759 342 759C353 759 368 768 373 776L442 873C447 880 449 888 449 896C449 919 430 939 407 939C396 939 382 931 373 918L308 825C303 818 300 810 300 801Z" glyph-name="Cacute" horiz-adv-x="649" unicode="&#262;" /><glyph d="M360 -13C458 -13 544 61 544 119C544 144 527 156 510 156C462 156 458 67 360 67C240 67 193 190 193 361C193 517 255 636 360 636C460 636 440 547 490 547C507 547 529 562 529 586C529 645 465 717 361 716C185 713 113 536 113 353C113 163 175 -13 360 -13ZM509 938C509 952 496 962 481 962C473 962 466 960 461 955L368 869L274 955C268 960 261 962 253 962C238 962 225 951 225 938C225 933 227 928 230 924L346 771C351 766 360 764 368 764C375 764 382 766 388 771L504 924C507 928 509 933 509 938Z" glyph-name="Ccaron" horiz-adv-x="649" unicode="&#268;" /><glyph d="M360 -13C458 -13 544 61 544 119C544 144 527 156 510 156C462 156 458 67 360 67C240 67 193 190 193 361C193 517 255 636 360 636C460 636 440 547 490 547C507 547 529 562 529 586C529 645 465 717 361 716C185 713 113 536 113 353C113 163 175 -13 360 -13ZM288 -1V-75C288 -94 306 -112 328 -112C351 -112 368 -128 368 -149C368 -169 350 -187 328 -187C305 -187 288 -204 288 -224C288 -243 305 -261 325 -261C392 -261 443 -212 443 -149C443 -97 410 -56 363 -42V-1C363 19 347 36 325 36C305 36 288 18 288 -1Z" glyph-name="Ccedilla" horiz-adv-x="649" unicode="&#199;" /><glyph d="M360 -13C458 -13 544 61 544 119C544 144 527 156 510 156C462 156 458 67 360 67C240 67 193 190 193 361C193 517 255 636 360 636C460 636 440 547 490 547C507 547 529 562 529 586C529 645 465 717 361 716C185 713 113 536 113 353C113 163 175 -13 360 -13ZM277 841C277 814 299 791 327 791H373C401 791 423 814 423 841V886C423 913 401 936 373 936H327C299 936 277 913 277 886Z" glyph-name="Cdotaccent" horiz-adv-x="649" unicode="&#266;" /><glyph d="M137 81C137 24 160 1 197 1C388 1 560 110 560 342C560 561 430 701 197 701C159 701 137 678 137 631ZM217 83V618C358 613 480 536 480 342C480 150 350 95 217 83Z" glyph-name="D" horiz-adv-x="649" unicode="D" /><glyph d="M494 278C494 306 471 318 444 318H364V607C364 635 351 657 324 657C297 657 284 634 284 607V318H204C177 321 154 305 154 278C154 251 177 238 204 238H284V150C284 123 296 100 324 100C352 100 364 122 364 150V238H444C471 241 494 250 494 278ZM154 478C154 450 177 438 204 438H284V149C284 121 297 99 324 99C351 99 364 122 364 149V438H444C471 435 494 451 494 478C494 505 471 518 444 518H364V606C364 633 352 656 324 656C296 656 284 634 284 606V518H204C177 515 154 506 154 478Z" glyph-name="Dagger" horiz-adv-x="649" /><glyph d="M137 81C137 24 160 1 197 1C388 1 560 110 560 342C560 561 430 701 197 701C159 701 137 678 137 631ZM217 83V618C358 613 480 536 480 342C480 150 350 95 217 83ZM466 915C466 929 453 939 438 939C430 939 423 937 418 932L325 846L231 932C225 937 218 939 210 939C195 939 182 928 182 915C182 910 184 905 187 901L303 748C308 743 317 741 325 741C332 741 339 743 345 748L461 901C464 905 466 910 466 915Z" glyph-name="Dcaron" horiz-adv-x="649" unicode="&#270;" /><glyph d="M94 296H284C312 296 334 309 334 344C334 371 312 384 284 384H94C66 384 44 372 44 344C44 308 66 296 94 296ZM137 81C137 24 160 1 197 1C388 1 560 110 560 342C560 561 430 701 197 701C159 701 137 678 137 631ZM217 83V618C358 613 480 536 480 342C480 150 350 95 217 83Z" glyph-name="Dcroat" horiz-adv-x="649" unicode="&#272;" /><glyph d="M132 51C132 23 155 1 182 1H494C521 1 544 13 544 41C544 69 522 81 494 81H212V326H446C474 326 496 339 496 366C496 393 473 406 446 406H212V621H494C521 621 544 633 544 661C544 689 522 701 494 701H182C154 701 132 679 132 651Z" glyph-name="E" horiz-adv-x="649" unicode="E" /><glyph d="M132 51C132 23 155 1 182 1H494C521 1 544 13 544 41C544 69 522 81 494 81H212V326H446C474 326 496 339 496 366C496 393 473 406 446 406H212V621H494C521 621 544 633 544 661C544 689 522 701 494 701H182C154 701 132 679 132 651ZM275 793C275 769 295 751 317 751C328 751 343 760 348 768L417 865C422 872 424 880 424 888C424 911 405 931 382 931C371 931 357 923 348 910L283 817C278 810 275 802 275 793Z" glyph-name="Eacute" horiz-adv-x="649" unicode="&#201;" /><glyph d="M132 51C132 23 155 1 182 1H494C521 1 544 13 544 41C544 69 522 81 494 81H212V326H446C474 326 496 339 496 366C496 393 473 406 446 406H212V621H494C521 621 544 633 544 661C544 689 522 701 494 701H182C154 701 132 679 132 651ZM336 764C426 764 498 832 498 907C498 925 483 941 464 941C446 941 432 927 430 909C426 874 390 832 336 832C282 832 247 874 242 909C241 927 227 941 208 941C189 941 174 926 174 907C174 832 247 764 336 764Z" glyph-name="Ebreve" horiz-adv-x="649" unicode="&#276;" /><glyph d="M132 51C132 23 155 1 182 1H494C521 1 544 13 544 41C544 69 522 81 494 81H212V326H446C474 326 496 339 496 366C496 393 473 406 446 406H212V621H494C521 621 544 633 544 661C544 689 522 701 494 701H182C154 701 132 679 132 651ZM477 943C477 957 464 967 449 967C441 967 434 965 429 960L336 874L242 960C236 965 229 967 221 967C206 967 193 956 193 943C193 938 195 933 198 929L314 776C319 771 328 769 336 769C343 769 350 771 356 776L472 929C475 933 477 938 477 943Z" glyph-name="Ecaron" horiz-adv-x="649" unicode="&#282;" /><glyph d="M132 51C132 23 155 1 182 1H494C521 1 544 13 544 41C544 69 522 81 494 81H212V326H446C474 326 496 339 496 366C496 393 473 406 446 406H212V621H494C521 621 544 633 544 661C544 689 522 701 494 701H182C154 701 132 679 132 651ZM184 805C184 791 197 781 212 781C220 781 227 783 232 788L325 874L419 788C425 783 432 781 440 781C455 781 468 792 468 805C468 810 466 815 463 819L347 972C342 977 333 979 325 979C318 979 311 977 305 972L189 819C186 815 184 810 184 805Z" glyph-name="Ecircumflex" horiz-adv-x="649" unicode="&#202;" /><glyph d="M132 51C132 23 155 1 182 1H494C521 1 544 13 544 41C544 69 522 81 494 81H212V326H446C474 326 496 339 496 366C496 393 473 406 446 406H212V621H494C521 621 544 633 544 661C544 689 522 701 494 701H182C154 701 132 679 132 651ZM190 833C190 806 212 783 240 783C268 783 290 806 290 833V890C290 917 267 940 240 940C213 940 190 917 190 890ZM362 833C362 805 384 783 412 783C439 783 462 806 462 833V890C462 917 438 940 412 940C385 940 362 918 362 890Z" glyph-name="Edieresis" horiz-adv-x="649" unicode="&#203;" /><glyph d="M132 51C132 23 155 1 182 1H494C521 1 544 13 544 41C544 69 522 81 494 81H212V326H446C474 326 496 339 496 366C496 393 473 406 446 406H212V621H494C521 621 544 633 544 661C544 689 522 701 494 701H182C154 701 132 679 132 651ZM253 845C253 818 275 795 303 795H349C377 795 399 818 399 845V890C399 917 377 940 349 940H303C275 940 253 917 253 890Z" glyph-name="Edotaccent" horiz-adv-x="649" unicode="&#278;" /><glyph d="M132 51C132 23 155 1 182 1H494C521 1 544 13 544 41C544 69 522 81 494 81H212V326H446C474 326 496 339 496 366C496 393 473 406 446 406H212V621H494C521 621 544 633 544 661C544 689 522 701 494 701H182C154 701 132 679 132 651ZM397 812C397 788 377 770 355 770C344 770 329 779 324 787L255 884C250 891 248 899 248 907C248 930 267 950 290 950C301 950 315 942 324 929L389 836C394 829 397 821 397 812Z" glyph-name="Egrave" horiz-adv-x="649" unicode="&#200;" /><glyph d="M132 51C132 23 155 1 182 1H494C521 1 544 13 544 41C544 69 522 81 494 81H212V326H446C474 326 496 339 496 366C496 393 473 406 446 406H212V621H494C521 621 544 633 544 661C544 689 522 701 494 701H182C154 701 132 679 132 651ZM138 843C138 821 155 803 176 803H465C486 803 504 821 504 843C504 863 485 881 465 881H176C156 881 138 863 138 843Z" glyph-name="Emacron" horiz-adv-x="649" unicode="&#274;" /><glyph d="M132 51C132 23 155 1 182 1H494C521 1 544 13 544 41C544 69 522 81 494 81H212V326H446C474 326 496 339 496 366C496 393 473 406 446 406H212V621H494C521 621 544 633 544 661C544 689 522 701 494 701H182C154 701 132 679 132 651ZM510 -201C532 -201 550 -187 550 -164C550 -143 532 -126 500 -126H425L532 10C543 24 552 53 531 69C512 84 483 74 474 62L334 -135C324 -149 322 -159 322 -166C322 -184 339 -201 358 -201Z" glyph-name="Eogonek" horiz-adv-x="649" unicode="&#280;" /><glyph d="M94 296H284C312 296 334 309 334 344C334 371 312 384 284 384H94C66 384 44 372 44 344C44 308 66 296 94 296ZM137 81C137 24 160 1 197 1C388 1 560 110 560 342C560 561 430 701 197 701C159 701 137 678 137 631ZM217 83V618C358 613 480 536 480 342C480 150 350 95 217 83Z" glyph-name="Eth" horiz-adv-x="649" unicode="&#208;" /><glyph d="M394 397H132C110 397 94 414 94 434C94 456 110 473 132 473H394C414 473 433 456 433 434C433 414 414 397 394 397ZM394 242H132C110 242 94 260 94 280C94 301 110 319 132 319H394C414 319 433 301 433 280C433 260 414 242 394 242ZM444 0C271 19 151 136 153 358C155 593 288 702 451 721C473 724 493 708 495 688C497 666 481 648 462 646C332 633 236 544 234 358C232 170 321 84 464 73C485 71 496 47 492 28C485 6 465 -2 444 0Z" glyph-name="Euro" horiz-adv-x="649" unicode="&#8364;" /><glyph d="M183 40C183 13 196 -10 223 -10C250 -10 263 13 263 40V326H432C469 326 492 339 492 366C492 393 468 406 432 406H263V621H497C524 621 547 633 547 661C547 689 525 701 497 701H253C205 701 183 678 183 631Z" glyph-name="F" horiz-adv-x="649" unicode="F" /><glyph d="M84 353C84 150 203 -15 360 -15C460 -15 549 27 549 95V309C549 346 526 369 489 369H356C319 369 296 357 296 329C296 301 318 289 356 289H469V93C450 81 422 67 362 67C240 67 165 218 165 357C165 530 257 633 352 633C451 633 461 553 497 553C524 553 539 570 539 597C539 625 475 715 352 715C200 715 84 554 84 353Z" glyph-name="G" horiz-adv-x="649" unicode="G" /><glyph d="M84 353C84 150 203 -15 360 -15C460 -15 549 27 549 95V309C549 346 526 369 489 369H356C319 369 296 357 296 329C296 301 318 289 356 289H469V93C450 81 422 67 362 67C240 67 165 218 165 357C165 530 257 633 352 633C451 633 461 553 497 553C524 553 539 570 539 597C539 625 475 715 352 715C200 715 84 554 84 353ZM341 777C431 777 503 845 503 920C503 938 488 954 469 954C451 954 437 940 435 922C431 887 395 845 341 845C287 845 252 887 247 922C246 940 232 954 213 954C194 954 179 939 179 920C179 845 252 777 341 777Z" glyph-name="Gbreve" horiz-adv-x="649" unicode="&#286;" /><glyph d="M84 353C84 150 203 -15 360 -15C460 -15 549 27 549 95V309C549 346 526 369 489 369H356C319 369 296 357 296 329C296 301 318 289 356 289H469V93C450 81 422 67 362 67C240 67 165 218 165 357C165 530 257 633 352 633C451 633 461 553 497 553C524 553 539 570 539 597C539 625 475 715 352 715C200 715 84 554 84 353ZM272 837C272 810 294 787 322 787H368C396 787 418 810 418 837V882C418 909 396 932 368 932H322C294 932 272 909 272 882Z" glyph-name="Gdotaccent" horiz-adv-x="649" unicode="&#288;" /><glyph d="M114 40C114 13 127 -10 154 -10C181 -10 194 12 194 40V320H457V40C457 13 470 -10 497 -10C524 -10 537 12 537 40V663C537 691 524 713 497 713C470 713 457 690 457 663V400H194V663C194 691 181 713 154 713C127 713 114 690 114 663Z" glyph-name="H" horiz-adv-x="649" unicode="H" /><glyph d="M114 40C114 13 127 -10 154 -10C181 -10 194 12 194 40V320H457V40C457 13 470 -10 497 -10C524 -10 537 12 537 40V663C537 691 524 713 497 713C470 713 457 690 457 663V400H194V663C194 691 181 713 154 713C127 713 114 690 114 663ZM34 506H614C642 506 664 519 664 544C664 571 642 586 614 586H34C6 586 -16 572 -16 544C-16 518 6 506 34 506Z" glyph-name="Hbar" horiz-adv-x="649" unicode="&#294;" /><glyph d="M132 41C132 14 155 1 182 1H468C495 1 518 14 518 41C518 68 496 81 468 81H365V621H448C475 621 498 634 498 661C498 688 476 701 448 701H202C174 701 152 688 152 661C152 634 175 621 202 621H285V81H182C154 81 132 68 132 41Z" glyph-name="I" horiz-adv-x="649" unicode="I" /><glyph d="M132 41C132 14 155 1 182 1H468C495 1 518 14 518 41C518 68 496 81 468 81H365V621H448C475 621 498 634 498 661C498 688 476 701 448 701H202C174 701 152 688 152 661C152 634 175 621 202 621H285V81H182C154 81 132 68 132 41ZM275 805C275 781 295 763 317 763C328 763 343 772 348 780L417 877C422 884 424 892 424 900C424 923 405 943 382 943C371 943 357 935 348 922L283 829C278 822 275 814 275 805Z" glyph-name="Iacute" horiz-adv-x="649" unicode="&#205;" /><glyph d="M132 41C132 14 155 1 182 1H468C495 1 518 14 518 41C518 68 496 81 468 81H365V621H448C475 621 498 634 498 661C498 688 476 701 448 701H202C174 701 152 688 152 661C152 634 175 621 202 621H285V81H182C154 81 132 68 132 41ZM325 767C415 767 487 835 487 910C487 928 472 944 453 944C435 944 421 930 419 912C415 877 379 835 325 835C271 835 236 877 231 912C230 930 216 944 197 944C178 944 163 929 163 910C163 835 236 767 325 767Z" glyph-name="Ibreve" horiz-adv-x="649" unicode="&#300;" /><glyph d="M132 41C132 14 155 1 182 1H468C495 1 518 14 518 41C518 68 496 81 468 81H365V621H448C475 621 498 634 498 661C498 688 476 701 448 701H202C174 701 152 688 152 661C152 634 175 621 202 621H285V81H182C154 81 132 68 132 41ZM184 794C184 780 197 770 212 770C220 770 227 772 232 777L325 863L419 777C425 772 432 770 440 770C455 770 468 781 468 794C468 799 466 804 463 808L347 961C342 966 333 968 325 968C318 968 311 966 305 961L189 808C186 804 184 799 184 794Z" glyph-name="Icircumflex" horiz-adv-x="649" unicode="&#206;" /><glyph d="M132 41C132 14 155 1 182 1H468C495 1 518 14 518 41C518 68 496 81 468 81H365V621H448C475 621 498 634 498 661C498 688 476 701 448 701H202C174 701 152 688 152 661C152 634 175 621 202 621H285V81H182C154 81 132 68 132 41ZM190 811C190 784 212 761 240 761C268 761 290 784 290 811V868C290 895 267 918 240 918C213 918 190 895 190 868ZM362 811C362 783 384 761 412 761C439 761 462 784 462 811V868C462 895 438 918 412 918C385 918 362 896 362 868Z" glyph-name="Idieresis" horiz-adv-x="649" unicode="&#207;" /><glyph d="M132 41C132 14 155 1 182 1H468C495 1 518 14 518 41C518 68 496 81 468 81H365V621H448C475 621 498 634 498 661C498 688 476 701 448 701H202C174 701 152 688 152 661C152 634 175 621 202 621H285V81H182C154 81 132 68 132 41ZM253 832C253 805 275 782 303 782H349C377 782 399 805 399 832V877C399 904 377 927 349 927H303C275 927 253 904 253 877Z" glyph-name="Idotaccent" horiz-adv-x="649" unicode="&#304;" /><glyph d="M132 41C132 14 155 1 182 1H468C495 1 518 14 518 41C518 68 496 81 468 81H365V621H448C475 621 498 634 498 661C498 688 476 701 448 701H202C174 701 152 688 152 661C152 634 175 621 202 621H285V81H182C154 81 132 68 132 41ZM388 808C388 784 368 766 346 766C335 766 320 775 315 783L246 880C241 887 239 895 239 903C239 926 258 946 281 946C292 946 306 938 315 925L380 832C385 825 388 817 388 808Z" glyph-name="Igrave" horiz-adv-x="649" unicode="&#204;" /><glyph d="M132 41C132 14 155 1 182 1H468C495 1 518 14 518 41C518 68 496 81 468 81H365V621H448C475 621 498 634 498 661C498 688 476 701 448 701H202C174 701 152 688 152 661C152 634 175 621 202 621H285V81H182C154 81 132 68 132 41ZM142 838C142 816 159 798 180 798H469C490 798 508 816 508 838C508 858 489 876 469 876H180C160 876 142 858 142 838Z" glyph-name="Imacron" horiz-adv-x="649" unicode="&#298;" /><glyph d="M132 41C132 14 155 1 182 1H468C495 1 518 14 518 41C518 68 496 81 468 81H365V621H448C475 621 498 634 498 661C498 688 476 701 448 701H202C174 701 152 688 152 661C152 634 175 621 202 621H285V81H182C154 81 132 68 132 41ZM484 -198C506 -198 524 -184 524 -161C524 -140 506 -123 474 -123H399L506 13C517 27 526 56 505 72C486 87 457 77 448 65L308 -132C298 -146 296 -156 296 -163C296 -181 313 -198 332 -198Z" glyph-name="Iogonek" horiz-adv-x="649" unicode="&#302;" /><glyph d="M93 156C93 50 181 -16 276 -16C373 -16 453 54 453 181V663C453 690 440 713 413 713C386 713 373 690 373 663V186C373 90 317 58 280 58C228 58 174 93 174 154C174 166 177 176 177 191C177 211 174 241 141 241C115 241 93 214 93 156Z" glyph-name="J" horiz-adv-x="649" unicode="J" /><glyph d="M100 40C100 13 115 -10 142 -10C169 -10 180 13 180 40V315L464 5C474 -5 487 -10 500 -10C520 -10 535 8 535 26C535 39 527 54 518 64L233 365L492 633C501 642 516 658 516 675C516 698 502 713 478 713C462 713 450 701 440 692L180 416V663C180 690 167 713 140 713C113 713 100 690 100 663Z" glyph-name="K" horiz-adv-x="649" unicode="K" /><glyph d="M114 71C114 24 137 1 184 1H526C553 1 576 14 576 41C576 68 554 82 526 81H194V663C194 691 181 713 154 713C127 713 114 690 114 663Z" glyph-name="L" horiz-adv-x="649" unicode="L" /><glyph d="M114 71C114 24 137 1 184 1H526C553 1 576 14 576 41C576 68 554 82 526 81H194V663C194 691 181 713 154 713C127 713 114 690 114 663ZM132 806C132 782 152 764 174 764C185 764 200 773 205 781L274 878C279 885 281 893 281 901C281 924 262 944 239 944C228 944 214 936 205 923L140 830C135 823 132 815 132 806Z" glyph-name="Lacute" horiz-adv-x="649" unicode="&#313;" /><glyph d="M114 71C114 24 137 1 184 1H526C553 1 576 14 576 41C576 68 554 82 526 81H194V663C194 691 181 713 154 713C127 713 114 690 114 663ZM479 908C479 922 466 932 451 932C443 932 436 930 431 925L338 839L244 925C238 930 231 932 223 932C208 932 195 921 195 908C195 903 197 898 200 894L316 741C321 736 330 734 338 734C345 734 352 736 358 741L474 894C477 898 479 903 479 908Z" glyph-name="Lcaron" horiz-adv-x="649" unicode="&#317;" /><glyph d="M114 71C114 24 137 1 184 1H526C553 1 576 14 576 41C576 68 554 82 526 81H194V663C194 691 181 713 154 713C127 713 114 690 114 663ZM461 349C461 322 483 299 511 299H557C585 299 607 322 607 349V394C607 421 585 444 557 444H511C483 444 461 421 461 394Z" glyph-name="Ldot" horiz-adv-x="649" unicode="&#319;" /><glyph d="M114 71C114 24 137 1 184 1H526C553 1 576 14 576 41C576 68 554 82 526 81H194V663C194 691 181 713 154 713C127 713 114 690 114 663ZM89.8326 260.9142 335.8882 355.6012C360.4937 365.0699 375.4305 383.9336 363.5946 414.6905C354.4641 438.4173 330.735 442.4016 306.1294 432.9329L60.0738 338.2459C35.4683 328.7772 20.1934 310.7923 29.6621 286.1867C41.8361 254.551 65.227 251.4455 89.8326 260.9142Z" glyph-name="Lslash" horiz-adv-x="649" unicode="&#321;" /><glyph d="M86 40C86 12 99 -10 126 -10C153 -10 166 13 166 40V609L278 243C284 223 304 207 326 207C350 207 368 224 374 243L486 609V40C486 12 499 -10 526 -10C553 -10 566 13 566 40V633C566 681 553 713 506 713H474C441 713 423 688 413 651L326 340L239 651C231 679 210 713 178 713H151C110 713 86 691 86 638Z" glyph-name="M" horiz-adv-x="649" unicode="M" /><glyph d="M98 40C98 13 111 -10 138 -10C165 -10 178 13 178 40V556L427 48C445 12 466 -10 500 -10C536 -10 550 13 550 60V663C550 690 536 713 510 713C483 713 470 691 470 663V146L220 654C206 683 190 713 153 713C116 713 98 690 98 653Z" glyph-name="N" horiz-adv-x="649" unicode="N" /><glyph d="M98 40C98 13 111 -10 138 -10C165 -10 178 13 178 40V556L427 48C445 12 466 -10 500 -10C536 -10 550 13 550 60V663C550 690 536 713 510 713C483 713 470 691 470 663V146L220 654C206 683 190 713 153 713C116 713 98 690 98 653ZM275 810C275 786 295 768 317 768C328 768 343 777 348 785L417 882C422 889 424 897 424 905C424 928 405 948 382 948C371 948 357 940 348 927L283 834C278 827 275 819 275 810Z" glyph-name="Nacute" horiz-adv-x="649" unicode="&#323;" /><glyph d="M98 40C98 13 111 -10 138 -10C165 -10 178 13 178 40V556L427 48C445 12 466 -10 500 -10C536 -10 550 13 550 60V663C550 690 536 713 510 713C483 713 470 691 470 663V146L220 654C206 683 190 713 153 713C116 713 98 690 98 653ZM483 914C483 928 470 938 455 938C447 938 440 936 435 931L342 845L248 931C242 936 235 938 227 938C212 938 199 927 199 914C199 909 201 904 204 900L320 747C325 742 334 740 342 740C349 740 356 742 362 747L478 900C481 904 483 909 483 914Z" glyph-name="Ncaron" horiz-adv-x="649" unicode="&#327;" /><glyph d="M98 40C98 13 111 -10 138 -10C165 -10 178 13 178 40V556L427 48C445 12 466 -10 500 -10C536 -10 550 13 550 60V663C550 690 536 713 510 713C483 713 470 691 470 663V146L220 654C206 683 190 713 153 713C116 713 98 690 98 653ZM142 812C142 791 159 773 181 773C199 773 215 787 218 805C222 823 234 831 246 831C264 831 286 817 300 806C326 787 354 769 386 765C390 765 393 764 397 764C449 764 494 801 504 853C505 856 506 859 506 860C506 882 487 899 467 899C449 899 433 885 429 869C425 848 415 842 402 842C384 842 361 856 347 867C322 886 293 905 261 908C258 908 255 909 250 909C199 909 153 871 142 820Z" glyph-name="Ntilde" horiz-adv-x="649" unicode="&#209;" /><glyph d="M326 -10C467 -10 573 135 573 349C573 557 485 711 326 711C170 711 76 565 76 350C76 135 177 -10 326 -10ZM156 351C156 525 216 631 326 631C430 631 493 518 493 346C493 172 427 70 326 70C224 70 156 172 156 351Z" glyph-name="O" horiz-adv-x="649" unicode="O" /><glyph d="M318 51C318 23 341 0 368 0H610C637 0 660 12 660 40C660 68 638 80 610 80H398V326H562C590 326 612 339 612 366C612 393 589 406 562 406H398V621H610C637 621 660 633 660 661C660 689 638 701 610 701H368C360 701 318 679 318 651ZM330 142C301 95 289 70 229 70C137 70 69 172 69 351C69 525 129 631 229 631C278 631 308 606 327 561V676C294 699 254 711 229 711C83 711 -11 565 -11 350C-11 135 90 -10 229 -10C253 -10 294 4 330 31Z" glyph-name="OE" horiz-adv-x="649" unicode="&#338;" /><glyph d="M326 -10C467 -10 573 135 573 349C573 557 485 711 326 711C170 711 76 565 76 350C76 135 177 -10 326 -10ZM156 351C156 525 216 631 326 631C430 631 493 518 493 346C493 172 427 70 326 70C224 70 156 172 156 351ZM275 809C275 785 295 767 317 767C328 767 343 776 348 784L417 881C422 888 424 896 424 904C424 927 405 947 382 947C371 947 357 939 348 926L283 833C278 826 275 818 275 809Z" glyph-name="Oacute" horiz-adv-x="649" unicode="&#211;" /><glyph d="M326 -10C467 -10 573 135 573 349C573 557 485 711 326 711C170 711 76 565 76 350C76 135 177 -10 326 -10ZM156 351C156 525 216 631 326 631C430 631 493 518 493 346C493 172 427 70 326 70C224 70 156 172 156 351ZM325 780C415 780 487 848 487 923C487 941 472 957 453 957C435 957 421 943 419 925C415 890 379 848 325 848C271 848 236 890 231 925C230 943 216 957 197 957C178 957 163 942 163 923C163 848 236 780 325 780Z" glyph-name="Obreve" horiz-adv-x="649" unicode="&#334;" /><glyph d="M326 -10C467 -10 573 135 573 349C573 557 485 711 326 711C170 711 76 565 76 350C76 135 177 -10 326 -10ZM156 351C156 525 216 631 326 631C430 631 493 518 493 346C493 172 427 70 326 70C224 70 156 172 156 351ZM184 785C184 771 197 761 212 761C220 761 227 763 232 768L325 854L419 768C425 763 432 761 440 761C455 761 468 772 468 785C468 790 466 795 463 799L347 952C342 957 333 959 325 959C318 959 311 957 305 952L189 799C186 795 184 790 184 785Z" glyph-name="Ocircumflex" horiz-adv-x="649" unicode="&#212;" /><glyph d="M86 666C86 638 98 616 126 616C154 616 166 639 166 666V723C166 750 153 773 126 773C99 773 86 751 86 723ZM94 303C94 134 193 -13 326 -13C465 -13 557 135 557 303C557 467 461 618 326 618C187 618 94 479 94 303ZM174 303C174 405 223 539 326 539C429 539 477 405 477 303C477 199 428 67 326 67C232 67 174 190 174 303ZM483 666C483 638 495 616 523 616C551 616 563 639 563 666V723C563 750 550 773 523 773C496 773 483 751 483 723Z" glyph-name="Odieresis" horiz-adv-x="649" unicode="&#214;" /><glyph d="M326 -10C467 -10 573 135 573 349C573 557 485 711 326 711C170 711 76 565 76 350C76 135 177 -10 326 -10ZM156 351C156 525 216 631 326 631C430 631 493 518 493 346C493 172 427 70 326 70C224 70 156 172 156 351ZM393 819C393 795 373 777 351 777C340 777 325 786 320 794L251 891C246 898 244 906 244 914C244 937 263 957 286 957C297 957 311 949 320 936L385 843C390 836 393 828 393 819Z" glyph-name="Ograve" horiz-adv-x="649" unicode="&#210;" /><glyph d="M326 -10C467 -10 573 135 573 349C573 557 485 711 326 711C170 711 76 565 76 350C76 135 177 -10 326 -10ZM156 351C156 525 216 631 326 631C430 631 493 518 493 346C493 172 427 70 326 70C224 70 156 172 156 351ZM377 791C377 767 397 749 419 749C430 749 445 758 450 766L519 863C524 870 526 878 526 886C526 909 507 929 484 929C473 929 459 921 450 908L385 815C380 808 377 800 377 791ZM185 791C185 767 205 749 227 749C238 749 253 758 258 766L327 863C332 870 334 878 334 886C334 909 315 929 292 929C281 929 267 921 258 908L193 815C188 808 185 800 185 791Z" glyph-name="Ohungarumlaut" horiz-adv-x="649" unicode="&#336;" /><glyph d="M326 -10C467 -10 573 135 573 349C573 557 485 711 326 711C170 711 76 565 76 350C76 135 177 -10 326 -10ZM156 351C156 525 216 631 326 631C430 631 493 518 493 346C493 172 427 70 326 70C224 70 156 172 156 351ZM139 832C139 810 156 792 177 792H466C487 792 505 810 505 832C505 852 486 870 466 870H177C157 870 139 852 139 832Z" glyph-name="Omacron" horiz-adv-x="649" unicode="&#332;" /><glyph d="M578 691C589 709 596 726 596 735C596 761 577 775 559 775C545 775 529 765 516 743L77 18C64 -4 59 -15 59 -31C59 -48 73 -66 92 -66C117 -66 129 -54 146 -25ZM326 -10C467 -10 573 135 573 349C573 557 485 711 326 711C170 711 76 565 76 350C76 135 177 -10 326 -10ZM156 351C156 525 216 631 326 631C430 631 493 518 493 346C493 172 427 70 326 70C224 70 156 172 156 351Z" glyph-name="Oslash" horiz-adv-x="649" unicode="&#216;" /><glyph d="M578 691C589 709 596 726 596 735C596 761 577 775 559 775C545 775 529 765 516 743L77 18C64 -4 59 -15 59 -31C59 -48 73 -66 92 -66C117 -66 129 -54 146 -25ZM326 -10C467 -10 573 135 573 349C573 557 485 711 326 711C170 711 76 565 76 350C76 135 177 -10 326 -10ZM156 351C156 525 216 631 326 631C430 631 493 518 493 346C493 172 427 70 326 70C224 70 156 172 156 351ZM275 816C275 792 295 774 317 774C328 774 343 783 348 791L417 888C422 895 424 903 424 911C424 934 405 954 382 954C371 954 357 946 348 933L283 840C278 833 275 825 275 816Z" glyph-name="Oslashacute" horiz-adv-x="649" unicode="&#510;" /><glyph d="M326 -10C467 -10 573 135 573 349C573 557 485 711 326 711C170 711 76 565 76 350C76 135 177 -10 326 -10ZM156 351C156 525 216 631 326 631C430 631 493 518 493 346C493 172 427 70 326 70C224 70 156 172 156 351ZM142 824C142 803 159 785 181 785C199 785 215 799 218 817C222 835 234 843 246 843C264 843 286 829 300 818C326 799 354 781 386 777C390 777 393 776 397 776C449 776 494 813 504 865C505 868 506 871 506 872C506 894 487 911 467 911C449 911 433 897 429 881C425 860 415 854 402 854C384 854 361 868 347 879C322 898 293 917 261 920C258 920 255 921 250 921C199 921 153 883 142 832Z" glyph-name="Otilde" horiz-adv-x="649" unicode="&#213;" /><glyph d="M114 40C114 13 127 -10 154 -10C181 -10 194 12 194 40V297H316C446 297 556 359 556 495C556 623 458 701 316 701H174C136 701 114 678 114 641ZM194 377V621H316C411 621 476 579 476 495C472 407 399 377 316 377Z" glyph-name="P" horiz-adv-x="649" unicode="P" /><glyph d="M499 9C508 -3 523 -10 536 -10C549 -10 567 7 567 24C567 35 562 52 555 61L380 291C372 302 357 310 343 310C324 310 307 291 307 272C307 260 312 249 319 240ZM326 -10C467 -10 573 135 573 349C573 557 485 711 326 711C170 711 76 565 76 350C76 135 177 -10 326 -10ZM156 351C156 525 216 631 326 631C430 631 493 518 493 346C493 172 427 70 326 70C224 70 156 172 156 351Z" glyph-name="Q" horiz-adv-x="649" unicode="Q" /><glyph d="M116 40C116 12 129 -10 156 -10C183 -10 196 13 196 40V297H322L477 19C488 -1 505 -10 518 -10C535 -10 556 2 556 29C556 38 552 54 547 62L402 315C486 333 557 397 557 498C557 596 486 701 330 701H176C138 701 116 679 116 641ZM196 377V621H334C428 621 477 568 477 498C477 429 423 377 336 377Z" glyph-name="R" horiz-adv-x="649" unicode="R" /><glyph d="M116 40C116 12 129 -10 156 -10C183 -10 196 13 196 40V297H322L477 19C488 -1 505 -10 518 -10C535 -10 556 2 556 29C556 38 552 54 547 62L402 315C486 333 557 397 557 498C557 596 486 701 330 701H176C138 701 116 679 116 641ZM196 377V621H334C428 621 477 568 477 498C477 429 423 377 336 377ZM253 808C253 784 273 766 295 766C306 766 321 775 326 783L395 880C400 887 402 895 402 903C402 926 383 946 360 946C349 946 335 938 326 925L261 832C256 825 253 817 253 808Z" glyph-name="Racute" horiz-adv-x="649" unicode="&#340;" /><glyph d="M116 40C116 12 129 -10 156 -10C183 -10 196 13 196 40V297H322L477 19C488 -1 505 -10 518 -10C535 -10 556 2 556 29C556 38 552 54 547 62L402 315C486 333 557 397 557 498C557 596 486 701 330 701H176C138 701 116 679 116 641ZM196 377V621H334C428 621 477 568 477 498C477 429 423 377 336 377ZM464 934C464 948 451 958 436 958C428 958 421 956 416 951L323 865L229 951C223 956 216 958 208 958C193 958 180 947 180 934C180 929 182 924 185 920L301 767C306 762 315 760 323 760C330 760 337 762 343 767L459 920C462 924 464 929 464 934Z" glyph-name="Rcaron" horiz-adv-x="649" unicode="&#344;" /><glyph d="M319 -15C428 -15 539 67 539 189C539 347 399 378 294 431C256 450 206 480 206 537C206 598 257 639 323 639C451 639 432 537 488 537C507 537 523 550 523 578C523 640 440 718 325 716C225 714 126 644 126 537C126 405 222 373 360 303C401 282 459 250 459 189C459 110 402 65 321 65C248 65 198 104 190 167C187 190 176 210 150 210C123 210 110 187 110 160C110 70 213 -15 319 -15Z" glyph-name="S" horiz-adv-x="649" unicode="S" /><glyph d="M319 -15C428 -15 539 67 539 189C539 347 399 378 294 431C256 450 206 480 206 537C206 598 257 639 323 639C451 639 432 537 488 537C507 537 523 550 523 578C523 640 440 718 325 716C225 714 126 644 126 537C126 405 222 373 360 303C401 282 459 250 459 189C459 110 402 65 321 65C248 65 198 104 190 167C187 190 176 210 150 210C123 210 110 187 110 160C110 70 213 -15 319 -15ZM266 807C266 783 286 765 308 765C319 765 334 774 339 782L408 879C413 886 415 894 415 902C415 925 396 945 373 945C362 945 348 937 339 924L274 831C269 824 266 816 266 807Z" glyph-name="Sacute" horiz-adv-x="649" unicode="&#346;" /><glyph d="M319 -15C428 -15 539 67 539 189C539 347 399 378 294 431C256 450 206 480 206 537C206 598 257 639 323 639C451 639 432 537 488 537C507 537 523 550 523 578C523 640 440 718 325 716C225 714 126 644 126 537C126 405 222 373 360 303C401 282 459 250 459 189C459 110 402 65 321 65C248 65 198 104 190 167C187 190 176 210 150 210C123 210 110 187 110 160C110 70 213 -15 319 -15ZM472 945C472 959 459 969 444 969C436 969 429 967 424 962L331 876L237 962C231 967 224 969 216 969C201 969 188 958 188 945C188 940 190 935 193 931L309 778C314 773 323 771 331 771C338 771 345 773 351 778L467 931C470 935 472 940 472 945Z" glyph-name="Scaron" horiz-adv-x="649" unicode="&#352;" /><glyph d="M319 -15C428 -15 539 67 539 189C539 347 399 378 294 431C256 450 206 480 206 537C206 598 257 639 323 639C451 639 432 537 488 537C507 537 523 550 523 578C523 640 440 718 325 716C225 714 126 644 126 537C126 405 222 373 360 303C401 282 459 250 459 189C459 110 402 65 321 65C248 65 198 104 190 167C187 190 176 210 150 210C123 210 110 187 110 160C110 70 213 -15 319 -15ZM266 -11V-85C266 -104 284 -122 306 -122C329 -122 346 -138 346 -159C346 -179 328 -197 306 -197C283 -197 266 -214 266 -234C266 -253 283 -271 303 -271C370 -271 421 -222 421 -159C421 -107 388 -66 341 -52V-11C341 9 325 26 303 26C283 26 266 8 266 -11Z" glyph-name="Scedilla" horiz-adv-x="649" unicode="&#350;" /><glyph d="M76 661C76 633 99 621 126 621H286V40C286 12 299 -10 326 -10C353 -10 366 13 366 40V621H526C553 621 576 634 576 661C576 688 554 701 526 701H126C98 701 76 689 76 661Z" glyph-name="T" horiz-adv-x="649" unicode="T" /><glyph d="M76 661C76 633 99 621 126 621H286V40C286 12 299 -10 326 -10C353 -10 366 13 366 40V621H526C553 621 576 634 576 661C576 688 554 701 526 701H126C98 701 76 689 76 661ZM476 945C476 959 463 969 448 969C440 969 433 967 428 962L335 876L241 962C235 967 228 969 220 969C205 969 192 958 192 945C192 940 194 935 197 931L313 778C318 773 327 771 335 771C342 771 349 773 355 778L471 931C474 935 476 940 476 945Z" glyph-name="Tcaron" horiz-adv-x="649" unicode="&#356;" /><glyph d="M138 121C138 64 161 41 198 41C389 41 561 130 561 332C561 521 431 641 198 641C160 641 138 618 138 571ZM218 123V558C359 553 481 496 481 332C481 170 351 135 218 123ZM138 -21C138 -49 150 -71 178 -71C206 -71 218 -48 218 -21V703C218 730 205 753 178 753C151 753 138 731 138 703Z" glyph-name="Thorn" horiz-adv-x="649" unicode="&#222;" /><glyph d="M100 221C100 77 202 -13 326 -13C449 -13 552 76 552 221V663C552 690 538 713 512 713C485 713 472 691 472 663V221C472 142 419 67 326 67C234 67 180 138 180 221V663C180 690 167 713 140 713C113 713 100 690 100 663Z" glyph-name="U" horiz-adv-x="649" unicode="U" /><glyph d="M100 221C100 77 202 -13 326 -13C449 -13 552 76 552 221V663C552 690 538 713 512 713C485 713 472 691 472 663V221C472 142 419 67 326 67C234 67 180 138 180 221V663C180 690 167 713 140 713C113 713 100 690 100 663ZM275 770C275 746 295 728 317 728C328 728 343 737 348 745L417 842C422 849 424 857 424 865C424 888 405 908 382 908C371 908 357 900 348 887L283 794C278 787 275 779 275 770Z" glyph-name="Uacute" horiz-adv-x="649" unicode="&#218;" /><glyph d="M100 221C100 77 202 -13 326 -13C449 -13 552 76 552 221V663C552 690 538 713 512 713C485 713 472 691 472 663V221C472 142 419 67 326 67C234 67 180 138 180 221V663C180 690 167 713 140 713C113 713 100 690 100 663ZM325 747C415 747 487 815 487 890C487 908 472 924 453 924C435 924 421 910 419 892C415 857 379 815 325 815C271 815 236 857 231 892C230 910 216 924 197 924C178 924 163 909 163 890C163 815 236 747 325 747Z" glyph-name="Ubreve" horiz-adv-x="649" unicode="&#364;" /><glyph d="M100 221C100 77 202 -13 326 -13C449 -13 552 76 552 221V663C552 690 538 713 512 713C485 713 472 691 472 663V221C472 142 419 67 326 67C234 67 180 138 180 221V663C180 690 167 713 140 713C113 713 100 690 100 663ZM184 765C184 751 197 741 212 741C220 741 227 743 232 748L325 834L419 748C425 743 432 741 440 741C455 741 468 752 468 765C468 770 466 775 463 779L347 932C342 937 333 939 325 939C318 939 311 937 305 932L189 779C186 775 184 770 184 765Z" glyph-name="Ucircumflex" horiz-adv-x="649" unicode="&#219;" /><glyph d="M86 733C86 705 108 693 136 693H166C195 693 217 705 217 733C217 761 194 773 166 773H136C109 773 86 761 86 733ZM437 733C437 706 459 693 487 693H519C547 693 569 706 569 733C569 760 546 773 519 773H487C460 773 437 760 437 733ZM100 221C100 77 202 -13 326 -13C449 -13 552 76 552 221V543C552 570 538 593 512 593C485 593 472 571 472 543V221C472 142 419 67 326 67C234 67 180 138 180 221V543C180 570 167 593 140 593C113 593 100 570 100 543Z" glyph-name="Udieresis" horiz-adv-x="649" unicode="&#220;" /><glyph d="M100 221C100 77 202 -13 326 -13C449 -13 552 76 552 221V663C552 690 538 713 512 713C485 713 472 691 472 663V221C472 142 419 67 326 67C234 67 180 138 180 221V663C180 690 167 713 140 713C113 713 100 690 100 663ZM403 795C403 771 383 753 361 753C350 753 335 762 330 770L261 867C256 874 254 882 254 890C254 913 273 933 296 933C307 933 321 925 330 912L395 819C400 812 403 804 403 795Z" glyph-name="Ugrave" horiz-adv-x="649" unicode="&#217;" /><glyph d="M463 817C463 793 483 775 505 775C516 775 531 784 536 792L605 889C610 896 612 904 612 912C612 935 593 955 570 955C559 955 545 947 536 934L471 841C466 834 463 826 463 817ZM107 817C107 793 127 775 149 775C160 775 175 784 180 792L249 889C254 896 256 904 256 912C256 935 237 955 214 955C203 955 189 947 180 934L115 841C110 834 107 826 107 817ZM100 221C100 77 202 -13 326 -13C449 -13 552 76 552 221V663C552 690 538 713 512 713C485 713 472 691 472 663V221C472 142 419 67 326 67C234 67 180 138 180 221V663C180 690 167 713 140 713C113 713 100 690 100 663Z" glyph-name="Uhungarumlaut" horiz-adv-x="649" unicode="&#368;" /><glyph d="M100 221C100 77 202 -13 326 -13C449 -13 552 76 552 221V663C552 690 538 713 512 713C485 713 472 691 472 663V221C472 142 419 67 326 67C234 67 180 138 180 221V663C180 690 167 713 140 713C113 713 100 690 100 663ZM142 833C142 811 159 793 180 793H469C490 793 508 811 508 833C508 853 489 871 469 871H180C160 871 142 853 142 833Z" glyph-name="Umacron" horiz-adv-x="649" unicode="&#362;" /><glyph d="M100 221C100 77 202 -13 326 -13C449 -13 552 76 552 221V663C552 690 538 713 512 713C485 713 472 691 472 663V221C472 142 419 67 326 67C234 67 180 138 180 221V663C180 690 167 713 140 713C113 713 100 690 100 663ZM414 -201C436 -201 454 -187 454 -164C454 -143 436 -126 404 -126H329L436 10C447 24 456 53 435 69C416 84 387 74 378 62L238 -135C228 -149 226 -159 226 -166C226 -184 243 -201 262 -201Z" glyph-name="Uogonek" horiz-adv-x="649" unicode="&#370;" /><glyph d="M100 221C100 77 202 -13 326 -13C449 -13 552 76 552 221V663C552 690 538 713 512 713C485 713 472 691 472 663V221C472 142 419 67 326 67C234 67 180 138 180 221V663C180 690 167 713 140 713C113 713 100 690 100 663ZM328 725C400 725 449 781 449 847C449 913 400 969 328 969C254 969 207 913 207 847C207 781 256 725 328 725ZM328 903C358 903 380 880 380 847C380 815 358 789 328 789C296 789 273 815 273 847C273 880 296 903 328 903Z" glyph-name="Uring" horiz-adv-x="649" unicode="&#366;" /><glyph d="M94 624 244 57C254 20 278 -10 312 -10H330C363 -10 386 14 399 60L556 629C572 686 554 713 527 713C503 713 488 690 478 654L322 75L168 662C159 696 146 713 124 713C97 713 78 686 94 624Z" glyph-name="V" horiz-adv-x="649" unicode="V" /><glyph d="M150 71C163 9 182 -10 213 -10C252 -10 268 19 280 70L325 261L382 70C397 20 415 -10 450 -10C486 -10 496 26 508 72C552 241 565 564 565 665C565 690 551 713 525 713C499 713 484 690 484 663C478 500 472 273 444 122L375 366C362 414 350 436 324 436C298 436 283 410 273 364L219 121C198 267 171 499 165 663C164 689 153 713 125 713C99 713 85 692 85 665C85 533 115 225 150 71Z" glyph-name="W" horiz-adv-x="649" unicode="W" /><glyph d="M150 71C163 9 182 -10 213 -10C252 -10 268 19 280 70L325 261L382 70C397 20 415 -10 450 -10C486 -10 496 26 508 72C552 241 565 564 565 665C565 690 551 713 525 713C499 713 484 690 484 663C478 500 472 273 444 122L375 366C362 414 350 436 324 436C298 436 283 410 273 364L219 121C198 267 171 499 165 663C164 689 153 713 125 713C99 713 85 692 85 665C85 533 115 225 150 71ZM265 778C265 754 285 736 307 736C318 736 333 745 338 753L407 850C412 857 414 865 414 873C414 896 395 916 372 916C361 916 347 908 338 895L273 802C268 795 265 787 265 778Z" glyph-name="Wacute" horiz-adv-x="649" unicode="&#7810;" /><glyph d="M150 71C163 9 182 -10 213 -10C252 -10 268 19 280 70L325 261L382 70C397 20 415 -10 450 -10C486 -10 496 26 508 72C552 241 565 564 565 665C565 690 551 713 525 713C499 713 484 690 484 663C478 500 472 273 444 122L375 366C362 414 350 436 324 436C298 436 283 410 273 364L219 121C198 267 171 499 165 663C164 689 153 713 125 713C99 713 85 692 85 665C85 533 115 225 150 71ZM184 765C184 751 197 741 212 741C220 741 227 743 232 748L325 834L419 748C425 743 432 741 440 741C455 741 468 752 468 765C468 770 466 775 463 779L347 932C342 937 333 939 325 939C318 939 311 937 305 932L189 779C186 775 184 770 184 765Z" glyph-name="Wcircumflex" horiz-adv-x="649" unicode="&#372;" /><glyph d="M150 71C163 9 182 -10 213 -10C252 -10 268 19 280 70L325 261L382 70C397 20 415 -10 450 -10C486 -10 496 26 508 72C552 241 565 564 565 665C565 690 551 713 525 713C499 713 484 690 484 663C478 500 472 273 444 122L375 366C362 414 350 436 324 436C298 436 283 410 273 364L219 121C198 267 171 499 165 663C164 689 153 713 125 713C99 713 85 692 85 665C85 533 115 225 150 71ZM190 827C190 800 212 777 240 777C268 777 290 800 290 827V884C290 911 267 934 240 934C213 934 190 911 190 884ZM362 827C362 799 384 777 412 777C439 777 462 800 462 827V884C462 911 438 934 412 934C385 934 362 912 362 884Z" glyph-name="Wdieresis" horiz-adv-x="649" unicode="&#7812;" /><glyph d="M150 71C163 9 182 -10 213 -10C252 -10 268 19 280 70L325 261L382 70C397 20 415 -10 450 -10C486 -10 496 26 508 72C552 241 565 564 565 665C565 690 551 713 525 713C499 713 484 690 484 663C478 500 472 273 444 122L375 366C362 414 350 436 324 436C298 436 283 410 273 364L219 121C198 267 171 499 165 663C164 689 153 713 125 713C99 713 85 692 85 665C85 533 115 225 150 71ZM404 787C404 763 384 745 362 745C351 745 336 754 331 762L262 859C257 866 255 874 255 882C255 905 274 925 297 925C308 925 322 917 331 904L396 811C401 804 404 796 404 787Z" glyph-name="Wgrave" horiz-adv-x="649" unicode="&#7808;" /><glyph d="M464 28C478 4 497 -10 516 -10C535 -10 551 7 551 25C551 33 551 45 540 64L189 680C174 706 163 713 145 713C126 713 108 694 108 674C108 655 114 646 118 638ZM108 29C108 3 128 -10 147 -10C167 -10 177 1 186 16L540 638C544 646 550 660 550 669C550 692 533 710 511 710C491 710 477 694 469 680L118 64C110 49 108 37 108 29Z" glyph-name="X" horiz-adv-x="649" unicode="X" /><glyph d="M104 674C104 665 105 656 109 649L286 339V40C286 12 299 -10 326 -10C353 -10 366 13 366 40V339L537 643C541 650 545 666 545 675C545 692 532 713 513 713C495 713 479 701 473 686L326 417L180 686C171 702 161 713 143 713C121 713 104 694 104 674Z" glyph-name="Y" horiz-adv-x="649" unicode="Y" /><glyph d="M104 674C104 665 105 656 109 649L286 339V40C286 12 299 -10 326 -10C353 -10 366 13 366 40V339L537 643C541 650 545 666 545 675C545 692 532 713 513 713C495 713 479 701 473 686L326 417L180 686C171 702 161 713 143 713C121 713 104 694 104 674ZM275 791C275 767 295 749 317 749C328 749 343 758 348 766L417 863C422 870 424 878 424 886C424 909 405 929 382 929C371 929 357 921 348 908L283 815C278 808 275 800 275 791Z" glyph-name="Yacute" horiz-adv-x="649" unicode="&#221;" /><glyph d="M104 674C104 665 105 656 109 649L286 339V40C286 12 299 -10 326 -10C353 -10 366 13 366 40V339L537 643C541 650 545 666 545 675C545 692 532 713 513 713C495 713 479 701 473 686L326 417L180 686C171 702 161 713 143 713C121 713 104 694 104 674ZM186 786C186 772 199 762 214 762C222 762 229 764 234 769L327 855L421 769C427 764 434 762 442 762C457 762 470 773 470 786C470 791 468 796 465 800L349 953C344 958 335 960 327 960C320 960 313 958 307 953L191 800C188 796 186 791 186 786Z" glyph-name="Ycircumflex" horiz-adv-x="649" unicode="&#374;" /><glyph d="M104 674C104 665 105 656 109 649L286 339V40C286 12 299 -10 326 -10C353 -10 366 13 366 40V339L537 643C541 650 545 666 545 675C545 692 532 713 513 713C495 713 479 701 473 686L326 417L180 686C171 702 161 713 143 713C121 713 104 694 104 674ZM190 823C190 796 212 773 240 773C268 773 290 796 290 823V880C290 907 267 930 240 930C213 930 190 907 190 880ZM362 823C362 795 384 773 412 773C439 773 462 796 462 823V880C462 907 438 930 412 930C385 930 362 908 362 880Z" glyph-name="Ydieresis" horiz-adv-x="649" unicode="&#376;" /><glyph d="M104 674C104 665 105 656 109 649L286 339V40C286 12 299 -10 326 -10C353 -10 366 13 366 40V339L537 643C541 650 545 666 545 675C545 692 532 713 513 713C495 713 479 701 473 686L326 417L180 686C171 702 161 713 143 713C121 713 104 694 104 674ZM394 798C394 774 374 756 352 756C341 756 326 765 321 773L252 870C247 877 245 885 245 893C245 916 264 936 287 936C298 936 312 928 321 915L386 822C391 815 394 807 394 798Z" glyph-name="Ygrave" horiz-adv-x="649" unicode="&#7922;" /><glyph d="M93 42C93 22 113 0 143 0H486C513 0 536 12 536 40C536 68 514 80 486 80H196L505 614C513 627 519 640 519 658C519 676 496 700 469 700H166C138 700 116 687 116 660C116 633 139 620 166 620H420L110 90C102 76 93 60 93 42Z" glyph-name="Z" horiz-adv-x="649" unicode="Z" /><glyph d="M93 42C93 22 113 0 143 0H486C513 0 536 12 536 40C536 68 514 80 486 80H196L505 614C513 627 519 640 519 658C519 676 496 700 469 700H166C138 700 116 687 116 660C116 633 139 620 166 620H420L110 90C102 76 93 60 93 42ZM265 805C265 781 285 763 307 763C318 763 333 772 338 780L407 877C412 884 414 892 414 900C414 923 395 943 372 943C361 943 347 935 338 922L273 829C268 822 265 814 265 805Z" glyph-name="Zacute" horiz-adv-x="649" unicode="&#377;" /><glyph d="M93 42C93 22 113 0 143 0H486C513 0 536 12 536 40C536 68 514 80 486 80H196L505 614C513 627 519 640 519 658C519 676 496 700 469 700H166C138 700 116 687 116 660C116 633 139 620 166 620H420L110 90C102 76 93 60 93 42ZM472 945C472 959 459 969 444 969C436 969 429 967 424 962L331 876L237 962C231 967 224 969 216 969C201 969 188 958 188 945C188 940 190 935 193 931L309 778C314 773 323 771 331 771C338 771 345 773 351 778L467 931C470 935 472 940 472 945Z" glyph-name="Zcaron" horiz-adv-x="649" unicode="&#381;" /><glyph d="M93 42C93 22 113 0 143 0H486C513 0 536 12 536 40C536 68 514 80 486 80H196L505 614C513 627 519 640 519 658C519 676 496 700 469 700H166C138 700 116 687 116 660C116 633 139 620 166 620H420L110 90C102 76 93 60 93 42ZM250 849C250 822 272 799 300 799H346C374 799 396 822 396 849V894C396 921 374 944 346 944H300C272 944 250 921 250 894Z" glyph-name="Zdotaccent" horiz-adv-x="649" unicode="&#379;" /><glyph d="M114 138C114 40 207 -14 292 -14C355 -14 423 17 449 65C449 10 462 -13 489 -13C516 -13 529 10 529 37V347C529 451 457 544 316 544C221 544 140 491 140 446C140 418 154 406 179 406C214 406 230 464 316 464C405 464 453 423 449 313C210 312 114 265 114 138ZM194 148C194 224 285 242 449 242V169C417 117 365 64 282 64C248 66 194 87 194 148Z" glyph-name="a" horiz-adv-x="649" unicode="a" /><glyph d="M114 138C114 40 207 -14 292 -14C355 -14 423 17 449 65C449 10 462 -13 489 -13C516 -13 529 10 529 37V347C529 451 457 544 316 544C221 544 140 491 140 446C140 418 154 406 179 406C214 406 230 464 316 464C405 464 453 423 449 313C210 312 114 265 114 138ZM194 148C194 224 285 242 449 242V169C417 117 365 64 282 64C248 66 194 87 194 148ZM275 688C275 664 295 646 317 646C328 646 343 655 348 663L417 760C422 767 424 775 424 783C424 806 405 826 382 826C371 826 357 818 348 805L283 712C278 705 275 697 275 688Z" glyph-name="aacute" horiz-adv-x="649" unicode="&#225;" /><glyph d="M114 138C114 40 207 -14 292 -14C355 -14 423 17 449 65C449 10 462 -13 489 -13C516 -13 529 10 529 37V347C529 451 457 544 316 544C221 544 140 491 140 446C140 418 154 406 179 406C214 406 230 464 316 464C405 464 453 423 449 313C210 312 114 265 114 138ZM194 148C194 224 285 242 449 242V169C417 117 365 64 282 64C248 66 194 87 194 148ZM325 647C415 647 487 715 487 790C487 808 472 824 453 824C435 824 421 810 419 792C415 757 379 715 325 715C271 715 236 757 231 792C230 810 216 824 197 824C178 824 163 809 163 790C163 715 236 647 325 647Z" glyph-name="abreve" horiz-adv-x="649" unicode="&#259;" /><glyph d="M114 138C114 40 207 -14 292 -14C355 -14 423 17 449 65C449 10 462 -13 489 -13C516 -13 529 10 529 37V347C529 451 457 544 316 544C221 544 140 491 140 446C140 418 154 406 179 406C214 406 230 464 316 464C405 464 453 423 449 313C210 312 114 265 114 138ZM194 148C194 224 285 242 449 242V169C417 117 365 64 282 64C248 66 194 87 194 148ZM183 645C183 631 196 621 211 621C219 621 226 623 231 628L324 714L418 628C424 623 431 621 439 621C454 621 467 632 467 645C467 650 465 655 462 659L346 812C341 817 332 819 324 819C317 819 310 817 304 812L188 659C185 655 183 650 183 645Z" glyph-name="acircumflex" horiz-adv-x="649" unicode="&#226;" /><glyph d="M275 569C275 545 295 527 317 527C328 527 343 536 348 544L417 641C422 648 424 656 424 664C424 687 405 707 382 707C371 707 357 699 348 686L283 593C278 586 275 578 275 569Z" glyph-name="acute" horiz-adv-x="649" unicode="&#180;" /><glyph d="M140 638C140 612 153 589 180 589C207 589 220 612 220 638V666C220 693 207 716 180 716C153 716 140 693 140 666ZM432 638C432 611 444 589 472 589C499 589 512 612 512 638V666C512 693 498 716 472 716C445 716 432 694 432 666ZM114 138C114 40 207 -14 292 -14C355 -14 423 17 449 65C449 10 462 -13 489 -13C516 -13 529 10 529 37V347C529 451 457 544 316 544C221 544 140 491 140 446C140 418 154 406 179 406C214 406 230 464 316 464C405 464 453 423 449 313C210 312 114 265 114 138ZM194 148C194 224 285 242 449 242V169C417 117 365 64 282 64C248 66 194 87 194 148Z" glyph-name="adieresis" horiz-adv-x="649" unicode="&#228;" /><glyph d="M-74 138C-74 40 19 -14 104 -14C260 -14 343 89 343 167L341 347C341 451 269 544 128 544C33 544 -48 491 -48 446C-48 418 -34 406 -9 406C26 406 42 464 128 464C217 464 265 423 261 313C22 312 -74 265 -74 138ZM6 148C6 224 97 242 261 242V169C229 117 177 64 94 64C60 66 6 87 6 148ZM271 274C271 105 362 -15 529 -15C607 -15 712 39 712 86C712 110 695 122 675 122C641 122 615 65 521 65C427 65 362 127 353 246H666C709 246 723 269 723 312C723 418 660 544 508 544C382 544 271 423 271 274ZM358 326C375 398 414 464 505 464C592 464 629 410 635 326Z" glyph-name="ae" horiz-adv-x="649" unicode="&#230;" /><glyph d="M-74 138C-74 40 19 -14 104 -14C260 -14 343 89 343 167L341 347C341 451 269 544 128 544C33 544 -48 491 -48 446C-48 418 -34 406 -9 406C26 406 42 464 128 464C217 464 265 423 261 313C22 312 -74 265 -74 138ZM6 148C6 224 97 242 261 242V169C229 117 177 64 94 64C60 66 6 87 6 148ZM271 274C271 105 362 -15 529 -15C607 -15 712 39 712 86C712 110 695 122 675 122C641 122 615 65 521 65C427 65 362 127 353 246H666C709 246 723 269 723 312C723 418 660 544 508 544C382 544 271 423 271 274ZM358 326C375 398 414 464 505 464C592 464 629 410 635 326ZM295 686C295 662 315 644 337 644C348 644 363 653 368 661L437 758C442 765 444 773 444 781C444 804 425 824 402 824C391 824 377 816 368 803L303 710C298 703 295 695 295 686Z" glyph-name="aeacute" horiz-adv-x="649" unicode="&#509;" /><glyph d="M114 138C114 40 207 -14 292 -14C355 -14 423 17 449 65C449 10 462 -13 489 -13C516 -13 529 10 529 37V347C529 451 457 544 316 544C221 544 140 491 140 446C140 418 154 406 179 406C214 406 230 464 316 464C405 464 453 423 449 313C210 312 114 265 114 138ZM194 148C194 224 285 242 449 242V169C417 117 365 64 282 64C248 66 194 87 194 148ZM404 678C404 654 384 636 362 636C351 636 336 645 331 653L262 750C257 757 255 765 255 773C255 796 274 816 297 816C308 816 322 808 331 795L396 702C401 695 404 687 404 678Z" glyph-name="agrave" horiz-adv-x="649" unicode="&#224;" /><glyph d="M114 138C114 40 207 -14 292 -14C355 -14 423 17 449 65C449 10 462 -13 489 -13C516 -13 529 10 529 37V347C529 451 457 544 316 544C221 544 140 491 140 446C140 418 154 406 179 406C214 406 230 464 316 464C405 464 453 423 449 313C210 312 114 265 114 138ZM194 148C194 224 285 242 449 242V169C417 117 365 64 282 64C248 66 194 87 194 148ZM151 762C151 740 168 722 189 722H478C499 722 517 740 517 762C517 782 498 800 478 800H189C169 800 151 782 151 762Z" glyph-name="amacron" horiz-adv-x="649" unicode="&#257;" /><glyph d="M89 175C89 61 172 -13 310 -13C378 -13 429 17 469 42C482 25 506 -10 534 -10C561 -10 571 4 571 31C571 57 540 85 529 101C544 138 570 196 570 278C570 305 560 329 533 329C506 329 494 306 494 278C494 255 488 204 470 170L316 350C401 394 474 465 474 552C474 639 404 709 308 709C190 709 131 614 131 528C131 460 164 416 200 367C142 323 89 259 89 175ZM169 175C169 233 206 280 247 306L415 106C391 82 358 67 299 67C212 68 169 117 169 175ZM204 528C204 588 240 629 300 629C336 629 389 611 389 552C389 507 359 461 269 408C245 442 204 488 204 528Z" glyph-name="ampersand" horiz-adv-x="649" unicode="&amp;" /><glyph d="M114 138C114 40 207 -14 292 -14C355 -14 423 17 449 65C449 10 462 -13 489 -13C516 -13 529 10 529 37V347C529 451 457 544 316 544C221 544 140 491 140 446C140 418 154 406 179 406C214 406 230 464 316 464C405 464 453 423 449 313C210 312 114 265 114 138ZM194 148C194 224 285 242 449 242V169C417 117 365 64 282 64C248 66 194 87 194 148ZM495 -216C517 -216 535 -202 535 -179C535 -158 517 -141 485 -141H410L517 -5C528 9 537 38 516 54C497 69 468 59 459 47L319 -150C309 -164 307 -174 307 -181C307 -199 324 -216 343 -216Z" glyph-name="aogonek" horiz-adv-x="649" unicode="&#261;" /><glyph d="M114 138C114 40 207 -14 292 -14C355 -14 423 17 449 65C449 10 462 -13 489 -13C516 -13 529 10 529 37V347C529 451 457 544 316 544C221 544 140 491 140 446C140 418 154 406 179 406C214 406 230 464 316 464C405 464 453 423 449 313C210 312 114 265 114 138ZM194 148C194 224 285 242 449 242V169C417 117 365 64 282 64C248 66 194 87 194 148ZM337 579C409 579 458 635 458 701C458 767 409 823 337 823C263 823 216 767 216 701C216 635 265 579 337 579ZM337 757C367 757 389 734 389 701C389 669 367 643 337 643C305 643 282 669 282 701C282 734 305 757 337 757Z" glyph-name="aring" horiz-adv-x="649" unicode="&#229;" /><glyph d="M114 138C114 40 207 -14 292 -14C355 -14 423 17 449 65C449 10 462 -13 489 -13C516 -13 529 10 529 37V347C529 451 457 544 316 544C221 544 140 491 140 446C140 418 154 406 179 406C214 406 230 464 316 464C405 464 453 423 449 313C210 312 114 265 114 138ZM194 148C194 224 285 242 449 242V169C417 117 365 64 282 64C248 66 194 87 194 148ZM337 579C409 579 458 635 458 701C458 767 409 823 337 823C263 823 216 767 216 701C216 635 265 579 337 579ZM337 757C367 757 389 734 389 701C389 669 367 643 337 643C305 643 282 669 282 701C282 734 305 757 337 757ZM284 895C284 871 304 853 326 853C337 853 352 862 357 870L426 967C431 974 433 982 433 990C433 1013 414 1033 391 1033C380 1033 366 1025 357 1012L292 919C287 912 284 904 284 895Z" glyph-name="aringacute" horiz-adv-x="649" unicode="&#507;" /><glyph d="M605 205C605 232 584 245 565 245C552 245 539 240 530 231L452 154V628C452 656 439 678 412 678C385 678 372 655 372 628V154L293 230C283 239 271 244 257 244C235 244 219 222 219 205C219 192 225 180 234 170L377 27C386 18 399 13 412 13C427 13 439 18 448 27L590 170C600 180 605 192 605 205Z" glyph-name="arrowdown" horiz-adv-x="649" unicode="&#8595;" /><glyph d="M416 538C389 538 376 517 376 498C376 485 381 472 390 463L467 385H91C63 385 41 372 41 345C41 318 64 305 91 305H467L391 226C382 216 377 204 377 190C377 168 399 152 416 152C429 152 441 158 451 167L594 310C603 319 608 332 608 345C608 360 603 372 594 381L451 523C441 533 429 538 416 538Z" glyph-name="arrowleft" horiz-adv-x="649" unicode="&#8592;" /><glyph d="M321 152C348 152 361 173 361 192C361 205 356 218 347 227L270 305H646C674 305 696 318 696 345C696 372 673 385 646 385H270L346 464C355 474 360 486 360 500C360 522 338 538 321 538C308 538 296 532 286 523L143 380C134 371 129 358 129 345C129 330 134 318 143 309L286 167C296 157 308 152 321 152Z" glyph-name="arrowright" horiz-adv-x="649" unicode="&#8594;" /><glyph d="M131 487C131 460 152 447 171 447C184 447 197 452 206 461L284 538V64C284 36 297 14 324 14C351 14 364 37 364 64V538L443 462C453 453 465 448 479 448C501 448 517 470 517 487C517 500 511 512 502 522L359 665C350 674 337 679 324 679C309 679 297 674 288 665L146 522C136 512 131 500 131 487Z" glyph-name="arrowup" horiz-adv-x="649" unicode="&#8593;" /><glyph d="M92 461C92 433 109 416 136 416C149 416 163 423 172 431L336 585L497 433C506 422 520 418 533 418C560 418 577 439 577 466C577 476 574 486 568 494L373 713C365 724 349 727 336 727C323 727 310 723 300 713L105 494C98 486 92 471 92 461Z" glyph-name="asciicircum" horiz-adv-x="649" unicode="^" /><glyph d="M-21 318C-21 291 -6 275 13 275C39 275 50 288 58 309C66 331 87 349 108 349C131 349 158 335 189 314C226 289 257 267 297 267C373 267 433 335 433 379C433 416 416 426 391 426C368 426 352 409 347 389C342 363 320 347 304 347C281 347 257 361 235 376C197 402 160 429 113 429C49 429 -21 373 -21 318Z" glyph-name="asciitilde" horiz-adv-x="412" unicode="~" /><glyph d="M109 474C109 453 122 440 138 433L254 395L176 291C171 283 168 274 168 265C168 241 187 222 211 222C223 222 233 225 242 233L334 357L407 233C414 225 427 222 438 222C462 222 481 241 481 265C481 272 479 279 476 286L409 399L510 433C528 439 540 453 540 474C540 497 521 517 497 517C492 517 488 516 484 515L368 477V607C368 630 348 650 325 650C301 650 282 631 282 607V477L153 519C130 519 109 497 109 474Z" glyph-name="asterisk" horiz-adv-x="649" unicode="*" /><glyph d="M86 194C86 77 130 -19 229 -19C275 -19 309 -4 336 19C358 -7 390 -18 423 -18C528 -18 566 51 566 209V343C566 526 527 718 323 718C199 718 105 657 89 550C83 514 101 493 129 493C154 493 165 512 168 535C176 595 245 638 323 638C463 638 486 479 486 343V203C486 114 473 61 424 61C406 61 389 73 389 126V369C389 395 376 419 349 419C332 419 315 409 306 394C284 409 248 421 217 421C102 420 86 310 86 194ZM166 195C166 286 178 341 227 341C255 341 295 330 309 303V112C296 94 270 61 225 61C177 64 166 138 166 195Z" glyph-name="at" horiz-adv-x="649" unicode="@" /><glyph d="M114 138C114 40 207 -14 292 -14C355 -14 423 17 449 65C449 10 462 -13 489 -13C516 -13 529 10 529 37V347C529 451 457 544 316 544C221 544 140 491 140 446C140 418 154 406 179 406C214 406 230 464 316 464C405 464 453 423 449 313C210 312 114 265 114 138ZM194 148C194 224 285 242 449 242V169C417 117 365 64 282 64C248 66 194 87 194 148ZM146 714C146 693 163 675 185 675C203 675 219 689 222 707C226 725 238 733 250 733C268 733 290 719 304 708C330 689 358 671 390 667C394 667 397 666 401 666C453 666 498 703 508 755C509 758 510 761 510 762C510 784 491 801 471 801C453 801 437 787 433 771C429 750 419 744 406 744C388 744 365 758 351 769C326 788 297 807 265 810C262 810 259 811 254 811C203 811 157 773 146 722Z" glyph-name="atilde" horiz-adv-x="649" unicode="&#227;" /><glyph d="M114 37C114 10 127 -13 154 -13C181 -13 194 9 194 37V51C223 17 281 -16 341 -16C457 -16 563 77 563 264C563 428 476 539 350 539C292 539 238 516 194 474V723C194 751 181 773 154 773C127 773 114 750 114 723ZM194 170V355C226 419 279 461 347 461C433 461 483 385 483 264C483 129 426 63 335 63C277 63 218 112 194 170Z" glyph-name="b" horiz-adv-x="649" unicode="b" /><glyph d="M457.0244 -31.2061C469.7523 -43.934 495.2082 -48.1766 514.3 -29.0847C525.6137 -17.771 524.9066 1.3209 517.1285 17.5843L230.0431 700.6495C227.9218 707.0134 218.7294 721.8627 213.7797 726.8124C196.102 744.4901 175.5959 743.783 157.9182 726.1053C143.7761 711.9632 149.4329 687.9215 156.504 670.951L440.0538 -5.7502C442.1751 -12.1142 452.0746 -26.2563 457.0244 -31.2061Z" glyph-name="backslash" horiz-adv-x="649" unicode="\" /><glyph d="M286 -111C286 -139 298 -161 326 -161C354 -161 366 -138 366 -111V723C366 750 353 773 326 773C299 773 286 751 286 723Z" glyph-name="bar" horiz-adv-x="649" unicode="|" /><glyph d="M82 379C82 351 105 340 132 340C226 340 253 309 253 229C253 63 361 -13 522 -13C549 -13 572 0 572 27C572 54 549 67 522 67C389 67 333 137 333 229C333 283 331 340 292 379C336 412 333 486 333 543C333 627 358 693 522 693C550 693 572 706 572 733C572 760 549 773 522 773C330 773 253 682 253 543C253 450 226 420 132 420C105 420 82 407 82 379Z" glyph-name="braceleft" horiz-adv-x="649" unicode="{" /><glyph d="M659 381C659 409 636 420 609 420C515 420 488 451 488 531C488 697 380 773 219 773C192 773 169 760 169 733C169 706 192 693 219 693C352 693 408 623 408 531C408 477 410 420 449 381C405 348 408 274 408 217C408 133 383 67 219 67C191 67 169 54 169 27C169 0 192 -13 219 -13C411 -13 488 78 488 217C488 310 515 340 609 340C636 340 659 353 659 381Z" glyph-name="braceright" horiz-adv-x="649" unicode="}" /><glyph d="M170 37C170 10 193 -13 220 -13H466C493 -13 516 0 516 27C516 54 493 67 466 67H250V693H466C494 693 516 706 516 733C516 760 493 773 466 773H220C193 773 170 750 170 723Z" glyph-name="bracketleft" horiz-adv-x="649" unicode="[" /><glyph d="M590 723C590 750 567 773 540 773H294C267 773 244 760 244 733C244 706 267 693 294 693H510V67H294C266 67 244 54 244 27C244 0 267 -13 294 -13H540C567 -13 590 10 590 37Z" glyph-name="bracketright" horiz-adv-x="649" unicode="]" /><glyph d="M325 677C415 677 487 745 487 820C487 838 472 854 453 854C435 854 421 840 419 822C415 787 379 745 325 745C271 745 236 787 231 822C230 840 216 854 197 854C178 854 163 839 163 820C163 745 236 677 325 677Z" glyph-name="breve" horiz-adv-x="649" unicode="&#728;" /><glyph d="M285 16C285 -12 297 -34 325 -34C353 -34 365 -11 365 16V244C365 271 352 294 325 294C298 294 285 272 285 244ZM285 460C285 432 297 410 325 410C353 410 365 433 365 460V668C365 695 352 718 325 718C298 718 285 696 285 668Z" glyph-name="brokenbar" horiz-adv-x="649" unicode="&#166;" /><glyph d="M171.519 324.5352C171.519 261.2392 210.8652 221.893 274.1613 221.893H313.5075C376.8035 221.893 416.1497 259.5285 416.1497 324.5352V370.7243C416.1497 435.731 376.8035 473.3665 313.5075 473.3665H274.1613C210.8652 473.3665 171.519 434.0203 171.519 370.7243Z" glyph-name="bullet" horiz-adv-x="649" unicode="&#8226;" /><glyph d="M120 264C120 77 227 -18 354 -18C462 -18 536 61 536 107C536 130 520 143 501 143C451 143 447 62 349 62C266 62 200 140 200 264C200 384 265 458 354 458C435 458 429 393 479 393C500 393 517 406 517 434C517 467 458 538 356 538C242 538 120 445 120 264Z" glyph-name="c" horiz-adv-x="649" unicode="c" /><glyph d="M120 264C120 77 227 -18 354 -18C462 -18 536 61 536 107C536 130 520 143 501 143C451 143 447 62 349 62C266 62 200 140 200 264C200 384 265 458 354 458C435 458 429 393 479 393C500 393 517 406 517 434C517 467 458 538 356 538C242 538 120 445 120 264ZM275 693C275 669 295 651 317 651C328 651 343 660 348 668L417 765C422 772 424 780 424 788C424 811 405 831 382 831C371 831 357 823 348 810L283 717C278 710 275 702 275 693Z" glyph-name="cacute" horiz-adv-x="649" unicode="&#263;" /><glyph d="M466 895C466 909 453 919 438 919C430 919 423 917 418 912L325 826L231 912C225 917 218 919 210 919C195 919 182 908 182 895C182 890 184 885 187 881L303 728C308 723 317 721 325 721C332 721 339 723 345 728L461 881C464 885 466 890 466 895Z" glyph-name="caron" horiz-adv-x="649" unicode="&#711;" /><glyph d="M120 264C120 77 227 -18 354 -18C462 -18 536 61 536 107C536 130 520 143 501 143C451 143 447 62 349 62C266 62 200 140 200 264C200 384 265 458 354 458C435 458 429 393 479 393C500 393 517 406 517 434C517 467 458 538 356 538C242 538 120 445 120 264ZM490 788C490 802 477 812 462 812C454 812 447 810 442 805L349 719L255 805C249 810 242 812 234 812C219 812 206 801 206 788C206 783 208 778 211 774L327 621C332 616 341 614 349 614C356 614 363 616 369 621L485 774C488 778 490 783 490 788Z" glyph-name="ccaron" horiz-adv-x="649" unicode="&#269;" /><glyph d="M120 264C120 77 227 -18 354 -18C462 -18 536 61 536 107C536 130 520 143 501 143C451 143 447 62 349 62C266 62 200 140 200 264C200 384 265 458 354 458C435 458 429 393 479 393C500 393 517 406 517 434C517 467 458 538 356 538C242 538 120 445 120 264ZM279 -19V-93C279 -112 297 -130 319 -130C342 -130 359 -146 359 -167C359 -187 341 -205 319 -205C296 -205 279 -222 279 -242C279 -261 296 -279 316 -279C383 -279 434 -230 434 -167C434 -115 401 -74 354 -60V-19C354 1 338 18 316 18C296 18 279 0 279 -19Z" glyph-name="ccedilla" horiz-adv-x="649" unicode="&#231;" /><glyph d="M120 264C120 77 227 -18 354 -18C462 -18 536 61 536 107C536 130 520 143 501 143C451 143 447 62 349 62C266 62 200 140 200 264C200 384 265 458 354 458C435 458 429 393 479 393C500 393 517 406 517 434C517 467 458 538 356 538C242 538 120 445 120 264ZM277 719C277 692 299 669 327 669H373C401 669 423 692 423 719V764C423 791 401 814 373 814H327C299 814 277 791 277 764Z" glyph-name="cdotaccent" horiz-adv-x="649" unicode="&#267;" /><glyph d="M276 -1V-75C276 -94 294 -112 316 -112C339 -112 356 -128 356 -149C356 -169 338 -187 316 -187C293 -187 276 -204 276 -224C276 -243 293 -261 313 -261C380 -261 431 -212 431 -149C431 -97 398 -56 351 -42V-1C351 19 335 36 313 36C293 36 276 18 276 -1Z" glyph-name="cedilla" horiz-adv-x="649" unicode="&#184;" /><glyph d="M221 -56C224 -74 242 -92 269 -88C285 -85 294 -69 298 -51L443 567C452 599 441 630 410 630C384 630 370 604 366 586L222 -25C220 -32 220 -49 221 -56ZM120 264C120 77 227 -18 354 -18C462 -18 536 61 536 107C536 130 520 143 501 143C451 143 447 62 349 62C266 62 200 140 200 264C200 384 265 458 354 458C435 458 429 393 479 393C500 393 517 406 517 434C517 467 458 538 356 538C242 538 120 445 120 264Z" glyph-name="cent" horiz-adv-x="649" unicode="&#162;" /><glyph d="M174 745C174 731 187 721 202 721C210 721 217 723 222 728L315 814L409 728C415 723 422 721 430 721C445 721 458 732 458 745C458 750 456 755 453 759L337 912C332 917 323 919 315 919C308 919 301 917 295 912L179 759C176 755 174 750 174 745Z" glyph-name="circumflex" horiz-adv-x="649" unicode="&#710;" /><glyph d="M254 50C254 13 277 -10 314 -10H337C374 -10 397 12 397 50V77C397 115 374 137 337 137H314C277 137 254 114 254 77ZM254 418C254 381 277 358 314 358H337C374 358 397 380 397 418V445C397 483 374 505 337 505H314C277 505 254 482 254 445Z" glyph-name="colon" horiz-adv-x="649" unicode=":" /><glyph d="M162 -154C162 -164 173 -184 197 -184C222 -184 241 -170 257 -147L395 47C414 74 424 93 424 117C424 155 401 177 364 177H344C311 177 288 156 276 128L177 -103C170 -119 162 -135 162 -154Z" glyph-name="comma" horiz-adv-x="649" unicode="," /><glyph d="M233 -285C233 -292 240 -305 257 -305C274 -305 286 -295 298 -280L363 -195C377 -177 383 -164 383 -147C383 -121 367 -105 341 -105H328C305 -105 287 -118 280 -139L243 -249C239 -261 233 -271 233 -285Z" glyph-name="commaaccent" horiz-adv-x="649" /><glyph d="M324 7C141 7 -16 166 -16 349C-16 530 141 689 324 689C507 689 665 532 665 349C665 165 508 7 324 7ZM324 610C186 610 63 487 63 349C63 209 186 86 324 86C464 86 586 209 586 349C586 487 464 610 324 610ZM326 181C247 181 177 260 177 351C177 438 247 517 326 517C388 517 436 476 448 447C456 427 450 406 433 396C416 385 392 388 379 406C365 425 354 438 326 438C293 438 256 401 256 351C256 307 286 261 326 261C356 261 371 276 379 289C390 307 411 318 432 310C451 301 461 278 452 257C441 230 399 181 326 181Z" glyph-name="copyright" horiz-adv-x="649" unicode="&#169;" /><glyph d="M84 374C84 226 183 115 324 115C464 115 564 228 564 374C564 522 462 635 324 635C181 635 84 522 84 374ZM164 374C164 483 222 555 324 555C425 555 484 484 484 374C484 275 427 195 324 195C221 195 164 275 164 374ZM109 700C86 707 64 692 57 671C55 660 60 643 66 637L141 545C146 538 153 534 161 531C184 525 208 539 214 561C217 572 213 587 203 599L131 686C125 693 118 698 109 700ZM487 219C464 225 441 210 435 189C432 178 437 161 443 155L518 63C524 56 531 52 539 50C561 43 585 57 592 79C594 90 590 105 580 117L508 204C502 211 495 216 487 219ZM585 664C586 688 566 706 544 707C533 707 518 698 513 690L442 594C437 587 435 579 435 571C435 548 453 528 476 528C487 528 501 535 511 548L577 640C582 647 585 655 585 664ZM213 179C213 203 194 221 172 221C161 221 146 213 140 205L70 109C65 102 63 94 63 86C62 63 81 43 104 42C115 42 129 50 138 63L205 155C210 162 213 170 213 179Z" glyph-name="currency" horiz-adv-x="649" unicode="&#164;" /><glyph d="M535 37V723C535 750 522 773 495 773C468 773 455 751 455 723V474C411 516 357 539 299 539C173 539 86 428 86 264C86 77 192 -16 308 -16C368 -16 426 17 455 51V37C455 9 468 -13 495 -13C522 -13 535 10 535 37ZM455 170C431 112 372 63 314 63C223 63 166 129 166 264C166 385 216 461 302 461C370 461 423 419 455 355Z" glyph-name="d" horiz-adv-x="649" unicode="d" /><glyph d="M146 480C146 452 169 440 196 440H286V151C286 123 299 101 326 101C353 101 366 124 366 151V440H446C473 437 496 453 496 480C496 507 473 520 446 520H366V608C366 635 354 658 326 658C298 658 286 636 286 608V520H196C169 517 146 508 146 480Z" glyph-name="dagger" horiz-adv-x="649" unicode="&#8224;" /><glyph d="M535 37V723C535 750 522 773 495 773C468 773 455 751 455 723V474C411 516 357 539 299 539C173 539 86 428 86 264C86 77 192 -16 308 -16C368 -16 426 17 455 51V37C455 9 468 -13 495 -13C522 -13 535 10 535 37ZM455 170C431 112 372 63 314 63C223 63 166 129 166 264C166 385 216 461 302 461C370 461 423 419 455 355ZM466 895C466 909 453 919 438 919C430 919 423 917 418 912L325 826L231 912C225 917 218 919 210 919C195 919 182 908 182 895C182 890 184 885 187 881L303 728C308 723 317 721 325 721C332 721 339 723 345 728L461 881C464 885 466 890 466 895Z" glyph-name="dcaron" horiz-adv-x="649" unicode="&#271;" /><glyph d="M535 37V723C535 750 522 773 495 773C468 773 455 751 455 723V474C411 516 357 539 299 539C173 539 86 428 86 264C86 77 192 -16 308 -16C368 -16 426 17 455 51V37C455 9 468 -13 495 -13C522 -13 535 10 535 37ZM455 170C431 112 372 63 314 63C223 63 166 129 166 264C166 385 216 461 302 461C370 461 423 419 455 355ZM311.918 608.7159H568.9671C594.672 608.7159 614.8687 619.9764 614.8687 650.293C614.8687 673.6801 594.672 684.9406 568.9671 684.9406H311.918C286.2131 684.9406 266.0164 674.5463 266.0164 650.293C266.0164 619.1102 286.2131 608.7159 311.918 608.7159Z" glyph-name="dcroat" horiz-adv-x="649" unicode="&#273;" /><glyph d="M206 455C311 455 382 537 382 633C382 728 311 810 206 810C98 810 30 728 30 633C30 537 101 455 206 455ZM206 730C262 730 301 690 301 633C301 575 262 530 206 530C148 530 105 575 105 633C105 690 148 730 206 730Z" glyph-name="degree" horiz-adv-x="412" unicode="&#176;" /><glyph d="M190 323C190 296 212 273 240 273C268 273 290 296 290 323V380C290 407 267 430 240 430C213 430 190 407 190 380ZM362 323C362 295 384 273 412 273C439 273 462 296 462 323V380C462 407 438 430 412 430C385 430 362 408 362 380Z" glyph-name="dieresis" horiz-adv-x="649" unicode="&#168;" /><glyph d="M75 380C75 352 98 338 125 340H524C551 340 574 353 574 380C574 407 551 422 524 420H125C98 420 75 408 75 380ZM254 571C254 534 277 511 314 511H337C374 511 397 533 397 571V598C397 636 374 658 337 658H314C277 658 254 635 254 598ZM254 168C254 131 277 108 314 108H337C374 108 397 130 397 168V195C397 233 374 255 337 255H314C277 255 254 232 254 195Z" glyph-name="divide" horiz-adv-x="649" unicode="&#247;" /><glyph d="M319 -15C428 -15 539 67 539 189C539 347 399 378 294 431C256 450 206 480 206 537C206 598 257 639 323 639C451 639 432 537 488 537C507 537 523 550 523 578C523 640 440 718 325 716C225 714 126 644 126 537C126 405 222 373 360 303C401 282 459 250 459 189C459 110 402 65 321 65C248 65 198 104 190 167C187 190 176 210 150 210C123 210 110 187 110 160C110 70 213 -15 319 -15ZM286 -69C286 -97 298 -119 326 -119C354 -119 366 -96 366 -69V765C366 792 353 815 326 815C299 815 286 793 286 765Z" glyph-name="dollar" horiz-adv-x="649" unicode="$" /><glyph d="M253 526C253 499 275 476 303 476H349C377 476 399 499 399 526V571C399 598 377 621 349 621H303C275 621 253 598 253 571Z" glyph-name="dotaccent" horiz-adv-x="649" unicode="&#729;" /><glyph d="M144 494C144 467 167 454 194 454H334V41C334 14 347 -9 374 -9C401 -9 414 13 414 41V464C414 512 392 534 344 534H194C166 534 144 521 144 494Z" glyph-name="dotlessi" horiz-adv-x="649" unicode="&#305;" /><glyph d="M106 274C106 105 197 -15 364 -15C442 -15 547 39 547 86C547 110 530 122 510 122C476 122 450 65 356 65C262 65 197 127 188 246H501C544 246 558 269 558 312C558 418 495 544 343 544C217 544 106 423 106 274ZM193 326C210 398 249 464 340 464C427 464 464 410 470 326Z" glyph-name="e" horiz-adv-x="649" unicode="e" /><glyph d="M106 274C106 105 197 -15 364 -15C442 -15 547 39 547 86C547 110 530 122 510 122C476 122 450 65 356 65C262 65 197 127 188 246H501C544 246 558 269 558 312C558 418 495 544 343 544C217 544 106 423 106 274ZM193 326C210 398 249 464 340 464C427 464 464 410 470 326ZM285 674C285 650 305 632 327 632C338 632 353 641 358 649L427 746C432 753 434 761 434 769C434 792 415 812 392 812C381 812 367 804 358 791L293 698C288 691 285 683 285 674Z" glyph-name="eacute" horiz-adv-x="649" unicode="&#233;" /><glyph d="M106 274C106 105 197 -15 364 -15C442 -15 547 39 547 86C547 110 530 122 510 122C476 122 450 65 356 65C262 65 197 127 188 246H501C544 246 558 269 558 312C558 418 495 544 343 544C217 544 106 423 106 274ZM193 326C210 398 249 464 340 464C427 464 464 410 470 326ZM332 642C422 642 494 710 494 785C494 803 479 819 460 819C442 819 428 805 426 787C422 752 386 710 332 710C278 710 243 752 238 787C237 805 223 819 204 819C185 819 170 804 170 785C170 710 243 642 332 642Z" glyph-name="ebreve" horiz-adv-x="649" unicode="&#277;" /><glyph d="M106 274C106 105 197 -15 364 -15C442 -15 547 39 547 86C547 110 530 122 510 122C476 122 450 65 356 65C262 65 197 127 188 246H501C544 246 558 269 558 312C558 418 495 544 343 544C217 544 106 423 106 274ZM193 326C210 398 249 464 340 464C427 464 464 410 470 326ZM486 811C486 825 473 835 458 835C450 835 443 833 438 828L345 742L251 828C245 833 238 835 230 835C215 835 202 824 202 811C202 806 204 801 207 797L323 644C328 639 337 637 345 637C352 637 359 639 365 644L481 797C484 801 486 806 486 811Z" glyph-name="ecaron" horiz-adv-x="649" unicode="&#283;" /><glyph d="M106 274C106 105 197 -15 364 -15C442 -15 547 39 547 86C547 110 530 122 510 122C476 122 450 65 356 65C262 65 197 127 188 246H501C544 246 558 269 558 312C558 418 495 544 343 544C217 544 106 423 106 274ZM193 326C210 398 249 464 340 464C427 464 464 410 470 326ZM189 652C189 638 202 628 217 628C225 628 232 630 237 635L330 721L424 635C430 630 437 628 445 628C460 628 473 639 473 652C473 657 471 662 468 666L352 819C347 824 338 826 330 826C323 826 316 824 310 819L194 666C191 662 189 657 189 652Z" glyph-name="ecircumflex" horiz-adv-x="649" unicode="&#234;" /><glyph d="M140 638C140 612 153 589 180 589C207 589 220 612 220 638V666C220 693 207 716 180 716C153 716 140 693 140 666ZM451 638C451 611 463 589 491 589C518 589 531 612 531 638V666C531 693 517 716 491 716C464 716 451 694 451 666ZM106 274C106 105 197 -15 364 -15C442 -15 547 39 547 86C547 110 530 122 510 122C476 122 450 65 356 65C262 65 197 127 188 246H501C544 246 558 269 558 312C558 418 495 544 343 544C217 544 106 423 106 274ZM193 326C210 398 249 464 340 464C427 464 464 410 470 326Z" glyph-name="edieresis" horiz-adv-x="649" unicode="&#235;" /><glyph d="M106 274C106 105 197 -15 364 -15C442 -15 547 39 547 86C547 110 530 122 510 122C476 122 450 65 356 65C262 65 197 127 188 246H501C544 246 558 269 558 312C558 418 495 544 343 544C217 544 106 423 106 274ZM193 326C210 398 249 464 340 464C427 464 464 410 470 326ZM262 703C262 676 284 653 312 653H358C386 653 408 676 408 703V748C408 775 386 798 358 798H312C284 798 262 775 262 748Z" glyph-name="edotaccent" horiz-adv-x="649" unicode="&#279;" /><glyph d="M106 274C106 105 197 -15 364 -15C442 -15 547 39 547 86C547 110 530 122 510 122C476 122 450 65 356 65C262 65 197 127 188 246H501C544 246 558 269 558 312C558 418 495 544 343 544C217 544 106 423 106 274ZM193 326C210 398 249 464 340 464C427 464 464 410 470 326ZM414 673C414 649 394 631 372 631C361 631 346 640 341 648L272 745C267 752 265 760 265 768C265 791 284 811 307 811C318 811 332 803 341 790L406 697C411 690 414 682 414 673Z" glyph-name="egrave" horiz-adv-x="649" unicode="&#232;" /><glyph d="M96 200C96 73 202 -13 326 -13C457 -13 556 75 556 200C556 298 497 371 411 423C483 462 522 512 522 600C522 705 431 773 326 773C220 773 130 706 130 600C130 512 182 460 241 423C155 371 96 299 96 200ZM175 200C175 283 236 337 328 382C393 348 476 279 476 200C476 128 423 67 326 67C238 67 175 126 175 200ZM210 600C210 651 260 693 326 693C402 693 442 651 442 600C442 533 383 489 326 463C270 489 210 534 210 600Z" glyph-name="eight" horiz-adv-x="649" unicode="8" /><glyph d="M545 50C545 13 568 -10 605 -10H628C665 -10 688 12 688 50V67C688 105 665 127 628 127H605C568 127 545 104 545 67ZM258 50C258 13 281 -10 318 -10H341C378 -10 401 12 401 50V67C401 105 378 127 341 127H318C281 127 258 104 258 67ZM-39 50C-39 13 -16 -10 21 -10H44C81 -10 104 12 104 50V67C104 105 81 127 44 127H21C-16 127 -39 104 -39 67Z" glyph-name="ellipsis" horiz-adv-x="649" unicode="&#8230;" /><glyph d="M106 274C106 105 197 -15 364 -15C442 -15 547 39 547 86C547 110 530 122 510 122C476 122 450 65 356 65C262 65 197 127 188 246H501C544 246 558 269 558 312C558 418 495 544 343 544C217 544 106 423 106 274ZM193 326C210 398 249 464 340 464C427 464 464 410 470 326ZM152 700C152 678 169 660 190 660H479C500 660 518 678 518 700C518 720 499 738 479 738H190C170 738 152 720 152 700Z" glyph-name="emacron" horiz-adv-x="649" unicode="&#275;" /><glyph d="M34 324H614C642 324 664 337 664 362C664 389 642 404 614 404H34C6 404 -16 390 -16 362C-16 336 6 324 34 324Z" glyph-name="emdash" horiz-adv-x="649" unicode="&#8212;" /><glyph d="M134 324H514C542 324 564 334 564 364C564 391 542 404 514 404H134C106 404 84 392 84 364C84 333 106 324 134 324Z" glyph-name="endash" horiz-adv-x="649" unicode="&#8211;" /><glyph d="M106 274C106 105 197 -15 364 -15C442 -15 547 39 547 86C547 110 530 122 510 122C476 122 450 65 356 65C262 65 197 127 188 246H501C544 246 558 269 558 312C558 418 495 544 343 544C217 544 106 423 106 274ZM193 326C210 398 249 464 340 464C427 464 464 410 470 326ZM453 -203C475 -203 493 -189 493 -166C493 -145 475 -128 443 -128H368L475 8C486 22 495 51 474 67C455 82 426 72 417 60L277 -137C267 -151 265 -161 265 -168C265 -186 282 -203 301 -203Z" glyph-name="eogonek" horiz-adv-x="649" unicode="&#281;" /><glyph d="M76 266C76 238 98 226 126 226H526C554 226 576 239 576 266C576 293 553 306 526 306H126C99 306 76 294 76 266ZM76 494C76 466 99 454 126 454H526C553 454 576 467 576 494C576 521 554 534 526 534H126C98 534 76 522 76 494Z" glyph-name="equal" horiz-adv-x="649" unicode="=" /><glyph d="M473 313C476 284 482 263 510 263C538 263 557 274 554 310C535 572 411 717 325 790C302 810 276 819 258 805C236 788 237 759 260 739C346 663 446 556 473 313ZM282 617 472 708C494 719 507 736 495 762C486 781 464 783 441 772L252 681C229 670 217 653 226 633C238 607 260 606 282 617ZM77 263C77 105 176 -16 317 -16C457 -16 557 107 557 263C557 421 455 544 317 544C174 544 77 421 77 263ZM157 263C157 382 215 464 317 464C418 464 477 383 477 263C477 154 420 64 317 64C214 64 157 154 157 263Z" glyph-name="eth" horiz-adv-x="649" unicode="&#240;" /><glyph d="M286 329C286 301 298 279 326 279C354 279 366 302 366 329V720C366 747 353 770 326 770C299 770 286 748 286 720ZM254 50C254 13 277 -10 314 -10H337C374 -10 397 12 397 50V77C397 115 374 137 337 137H314C277 137 254 114 254 77Z" glyph-name="exclam" horiz-adv-x="649" unicode="!" /><glyph d="M452 361C452 389 440 411 412 411C384 411 372 388 372 361V-30C372 -57 385 -80 412 -80C439 -80 452 -58 452 -30ZM484 640C484 677 461 700 424 700H401C364 700 341 678 341 640V613C341 575 364 553 401 553H424C461 553 484 576 484 613Z" glyph-name="exclamdown" horiz-adv-x="649" unicode="&#161;" /><glyph d="M110 483C110 456 132 443 160 443H280V37C280 9 293 -13 320 -13C347 -13 360 10 360 37V443H492C519 443 542 456 542 483C542 510 518 523 492 523H360V546C360 640 410 690 489 690C516 690 539 703 539 730C539 757 516 770 489 770C374 770 280 692 280 542V523H160C133 523 110 508 110 483Z" glyph-name="f" horiz-adv-x="649" unicode="f" /><glyph d="M122 27C122 -1 145 -13 172 -13C346 -13 529 74 529 267C529 430 404 514 225 503L233 678H460C487 678 510 692 510 718C510 745 488 758 460 758H206C179 758 158 738 156 711L142 470C140 438 162 420 187 420C203 420 219 423 240 423C393 423 446 349 446 267C446 151 324 67 172 67C145 67 122 55 122 27Z" glyph-name="five" horiz-adv-x="649" unicode="5" /><glyph d="M95 232C95 189 135 174 193 174H373V40C373 13 386 -10 413 -10C440 -10 455 13 453 40V174H516C543 174 566 187 566 214C566 241 544 254 516 254H453V380C455 407 440 430 413 430C386 430 373 407 373 380V254H184L385 695C391 709 395 723 395 738C395 752 377 770 358 770C339 770 324 757 318 741L123 314C112 291 95 261 95 232Z" glyph-name="four" horiz-adv-x="649" unicode="4" /><glyph d="M89 269C89 133 180 19 312 19C388 19 441 55 460 84V27C460 -60 410 -110 325 -110C223 -110 198 -54 147 -54C124 -54 111 -72 111 -96C111 -139 233 -193 325 -193C453 -193 540 -111 540 31V486C540 513 527 536 500 536C475 536 462 515 460 480C433 511 365 539 315 539C177 539 89 421 89 269ZM169 269C169 365 215 459 316 459C381 454 428 421 460 374V193C434 145 390 99 312 99C220 99 169 191 169 269Z" glyph-name="g" horiz-adv-x="649" unicode="g" /><glyph d="M89 269C89 133 180 19 312 19C388 19 441 55 460 84V27C460 -60 410 -110 325 -110C223 -110 198 -54 147 -54C124 -54 111 -72 111 -96C111 -139 233 -193 325 -193C453 -193 540 -111 540 31V486C540 513 527 536 500 536C475 536 462 515 460 480C433 511 365 539 315 539C177 539 89 421 89 269ZM169 269C169 365 215 459 316 459C381 454 428 421 460 374V193C434 145 390 99 312 99C220 99 169 191 169 269ZM325 677C415 677 487 745 487 820C487 838 472 854 453 854C435 854 421 840 419 822C415 787 379 745 325 745C271 745 236 787 231 822C230 840 216 854 197 854C178 854 163 839 163 820C163 745 236 677 325 677Z" glyph-name="gbreve" horiz-adv-x="649" unicode="&#287;" /><glyph d="M89 269C89 133 180 19 312 19C388 19 441 55 460 84V27C460 -60 410 -110 325 -110C223 -110 198 -54 147 -54C124 -54 111 -72 111 -96C111 -139 233 -193 325 -193C453 -193 540 -111 540 31V486C540 513 527 536 500 536C475 536 462 515 460 480C433 511 365 539 315 539C177 539 89 421 89 269ZM169 269C169 365 215 459 316 459C381 454 428 421 460 374V193C434 145 390 99 312 99C220 99 169 191 169 269ZM256 715C256 688 278 665 306 665H352C380 665 402 688 402 715V760C402 787 380 810 352 810H306C278 810 256 787 256 760Z" glyph-name="gdotaccent" horiz-adv-x="649" unicode="&#289;" /><glyph d="M109 37C109 9 122 -13 149 -13C176 -13 189 10 189 37V473C189 623 250 681 320 681C392 681 443 636 443 565C443 507 422 459 375 447C347 440 317 432 317 396C317 362 348 353 381 348C437 340 486 283 486 212C486 136 445 75 378 73C338 72 319 59 319 33C319 7 335 -7 371 -7C508 -7 564 102 564 210C564 289 524 369 444 409C505 445 524 500 523 567C521 673 449 761 319 761C185 761 109 654 109 473Z" glyph-name="germandbls" horiz-adv-x="649" unicode="&#223;" /><glyph d="M424 569C424 545 404 527 382 527C371 527 356 536 351 544L282 641C277 648 275 656 275 664C275 687 294 707 317 707C328 707 342 699 351 686L416 593C421 586 424 578 424 569Z" glyph-name="grave" horiz-adv-x="649" unicode="`" /><glyph d="M640 416 251 687C243 693 233 696 223 696C200 696 182 679 182 658C182 644 185 630 197 622L553 380L197 138C185 130 182 116 182 102C182 79 196 64 223 64C233 64 243 67 251 73L640 344C650 351 660 359 660 380C660 399 650 409 640 416Z" glyph-name="greater" horiz-adv-x="649" unicode="&gt;" /><glyph d="M550 163C564 163 574 176 574 191C574 199 572 206 567 211L481 304L567 398C572 404 574 411 574 419C574 434 563 447 550 447C545 447 540 445 536 442L383 326C378 321 376 312 376 304C376 297 378 290 383 284L536 168C540 165 545 163 550 163ZM308 163C322 163 332 176 332 191C332 199 330 206 325 211L239 304L325 398C330 404 332 411 332 419C332 434 321 447 308 447C303 447 298 445 294 442L141 326C136 321 134 312 134 304C134 297 136 290 141 284L294 168C298 165 303 163 308 163Z" glyph-name="guillemotleft" horiz-adv-x="649" unicode="&#171;" /><glyph d="M180 535C166 535 156 522 156 507C156 499 158 492 163 487L249 394L163 300C158 294 156 287 156 279C156 264 167 251 180 251C185 251 190 253 194 256L347 372C352 377 354 386 354 394C354 401 352 408 347 414L194 530C190 533 185 535 180 535ZM422 535C408 535 398 522 398 507C398 499 400 492 405 487L491 394L405 300C400 294 398 287 398 279C398 264 409 251 422 251C427 251 432 253 436 256L589 372C594 377 596 386 596 394C596 401 594 408 589 414L436 530C432 533 427 535 422 535Z" glyph-name="guillemotright" horiz-adv-x="649" unicode="&#187;" /><glyph d="M435 163C449 163 459 176 459 191C459 199 457 206 452 211L366 304L452 398C457 404 459 411 459 419C459 434 448 447 435 447C430 447 425 445 421 442L268 326C263 321 261 312 261 304C261 297 263 290 268 284L421 168C425 165 430 163 435 163Z" glyph-name="guilsinglleft" horiz-adv-x="649" unicode="&#8249;" /><glyph d="M293 535C279 535 269 522 269 507C269 499 271 492 276 487L362 394L276 300C271 294 269 287 269 279C269 264 280 251 293 251C298 251 303 253 307 256L460 372C465 377 467 386 467 394C467 401 465 408 460 414L307 530C303 533 298 535 293 535Z" glyph-name="guilsinglright" horiz-adv-x="649" unicode="&#8250;" /><glyph d="M126 37C126 9 139 -13 166 -13C193 -13 206 10 206 37V376C233 428 287 459 342 459C413 459 450 409 450 298V37C450 10 463 -13 490 -13C517 -13 530 10 530 37V296C530 440 469 537 351 537C290 537 235 508 206 479V723C206 750 193 773 166 773C139 773 126 751 126 723Z" glyph-name="h" horiz-adv-x="649" unicode="h" /><glyph d="M88 617H335C360 617 379 628 379 656C379 677 360 688 335 688H88C63 688 44 678 44 656C44 627 63 617 88 617ZM126 37C126 9 139 -13 166 -13C193 -13 206 10 206 37V376C233 428 287 459 342 459C413 459 450 409 450 298V37C450 10 463 -13 490 -13C517 -13 530 10 530 37V296C530 440 469 537 351 537C290 537 235 508 206 479V723C206 750 193 773 166 773C139 773 126 751 126 723Z" glyph-name="hbar" horiz-adv-x="649" unicode="&#295;" /><glyph d="M339 569C339 545 359 527 381 527C392 527 407 536 412 544L481 641C486 648 488 656 488 664C488 687 469 707 446 707C435 707 421 699 412 686L347 593C342 586 339 578 339 569ZM147 569C147 545 167 527 189 527C200 527 215 536 220 544L289 641C294 648 296 656 296 664C296 687 277 707 254 707C243 707 229 699 220 686L155 593C150 586 147 578 147 569Z" glyph-name="hungarumlaut" horiz-adv-x="649" unicode="&#733;" /><glyph d="M184 316H464C492 316 514 329 514 364C514 391 492 404 464 404H184C156 404 134 392 134 364C134 328 156 316 184 316Z" glyph-name="hyphen" horiz-adv-x="649" unicode="-" /><glyph d="M144 494C144 467 167 454 194 454H334V41C334 14 347 -9 374 -9C401 -9 414 13 414 41V464C414 512 392 534 344 534H194C166 534 144 521 144 494ZM292 697C292 669 315 647 342 647H367C394 647 417 669 417 697V723C417 751 394 773 367 773H342C315 773 292 751 292 723Z" glyph-name="i" horiz-adv-x="649" unicode="i" /><glyph d="M144 494C144 467 167 454 194 454H334V41C334 14 347 -9 374 -9C401 -9 414 13 414 41V464C414 512 392 534 344 534H194C166 534 144 521 144 494ZM295 704C295 680 315 662 337 662C348 662 363 671 368 679L437 776C442 783 444 791 444 799C444 822 425 842 402 842C391 842 377 834 368 821L303 728C298 721 295 713 295 704Z" glyph-name="iacute" horiz-adv-x="649" unicode="&#237;" /><glyph d="M144 494C144 467 167 454 194 454H334V41C334 14 347 -9 374 -9C401 -9 414 13 414 41V464C414 512 392 534 344 534H194C166 534 144 521 144 494ZM305 669C395 669 467 737 467 812C467 830 452 846 433 846C415 846 401 832 399 814C395 779 359 737 305 737C251 737 216 779 211 814C210 832 196 846 177 846C158 846 143 831 143 812C143 737 216 669 305 669Z" glyph-name="ibreve" horiz-adv-x="649" unicode="&#301;" /><glyph d="M144 494C144 467 167 454 194 454H334V41C334 14 347 -9 374 -9C401 -9 414 13 414 41V464C414 512 392 534 344 534H194C166 534 144 521 144 494ZM163 689C163 675 176 665 191 665C199 665 206 667 211 672L304 758L398 672C404 667 411 665 419 665C434 665 447 676 447 689C447 694 445 699 442 703L326 856C321 861 312 863 304 863C297 863 290 861 284 856L168 703C165 699 163 694 163 689Z" glyph-name="icircumflex" horiz-adv-x="649" unicode="&#238;" /><glyph d="M144 494C144 467 167 454 194 454H334V41C334 14 347 -9 374 -9C401 -9 414 13 414 41V464C414 512 392 534 344 534H194C166 534 144 521 144 494ZM159 718C159 691 181 668 209 668C237 668 259 691 259 718V775C259 802 236 825 209 825C182 825 159 802 159 775ZM331 718C331 690 353 668 381 668C408 668 431 691 431 718V775C431 802 407 825 381 825C354 825 331 803 331 775Z" glyph-name="idieresis" horiz-adv-x="649" unicode="&#239;" /><glyph d="M144 494C144 467 167 454 194 454H334V41C334 14 347 -9 374 -9C401 -9 414 13 414 41V464C414 512 392 534 344 534H194C166 534 144 521 144 494ZM404 696C404 672 384 654 362 654C351 654 336 663 331 671L262 768C257 775 255 783 255 791C255 814 274 834 297 834C308 834 322 826 331 813L396 720C401 713 404 705 404 696Z" glyph-name="igrave" horiz-adv-x="649" unicode="&#236;" /><glyph d="M126 754C126 732 143 714 164 714H453C474 714 492 732 492 754C492 774 473 792 453 792H164C144 792 126 774 126 754ZM144 494C144 467 167 454 194 454H334V41C334 14 347 -9 374 -9C401 -9 414 13 414 41V464C414 512 392 534 344 534H194C166 534 144 521 144 494Z" glyph-name="imacron" horiz-adv-x="649" unicode="&#299;" /><glyph d="M144 494C144 467 167 454 194 454H334V41C334 14 347 -9 374 -9C401 -9 414 13 414 41V464C414 512 392 534 344 534H194C166 534 144 521 144 494ZM292 697C292 669 315 647 342 647H367C394 647 417 669 417 697V723C417 751 394 773 367 773H342C315 773 292 751 292 723ZM379 -210C401 -210 419 -196 419 -173C419 -152 401 -135 369 -135H294L401 1C412 15 421 44 400 60C381 75 352 65 343 53L203 -144C193 -158 191 -168 191 -175C191 -193 208 -210 227 -210Z" glyph-name="iogonek" horiz-adv-x="649" unicode="&#303;" /><glyph d="M117 -129C117 -165 194 -178 240 -178H274C368 -178 419 -89 419 4V474C419 501 397 524 369 524H223C195 524 173 511 173 484C173 457 196 444 223 444H339V17C339 -53 309 -98 264 -101H233C198 -101 178 -91 159 -91C131 -91 117 -104 117 -129ZM292 697C292 669 315 647 342 647H367C394 647 417 669 417 697V723C417 751 394 773 367 773H342C315 773 292 751 292 723Z" glyph-name="j" horiz-adv-x="649" unicode="j" /><glyph d="M146 37C146 9 159 -13 186 -13C213 -13 226 10 226 37V244L461 2C470 -8 485 -13 498 -13C511 -13 532 4 532 19C532 35 529 46 521 55L288 292L484 461C494 470 507 485 507 499C507 522 492 537 471 537C458 537 444 530 435 521L226 344V723C226 750 213 773 186 773C159 773 146 751 146 723Z" glyph-name="k" horiz-adv-x="649" unicode="k" /><glyph d="M216 228C216 65 288 -7 452 -7C496 -7 519 6 519 33C519 60 496 73 455 73C329 73 296 142 296 228V722C296 750 284 773 257 773C229 773 216 750 216 722Z" glyph-name="l" horiz-adv-x="649" unicode="l" /><glyph d="M216 228C216 65 288 -7 452 -7C496 -7 519 6 519 33C519 60 496 73 455 73C329 73 296 142 296 228V722C296 750 284 773 257 773C229 773 216 750 216 722ZM221 885C221 861 241 843 263 843C274 843 289 852 294 860L363 957C368 964 370 972 370 980C370 1003 351 1023 328 1023C317 1023 303 1015 294 1002L229 909C224 902 221 894 221 885Z" glyph-name="lacute" horiz-adv-x="649" unicode="&#314;" /><glyph d="M216 228C216 65 288 -7 452 -7C496 -7 519 6 519 33C519 60 496 73 455 73C329 73 296 142 296 228V722C296 750 284 773 257 773C229 773 216 750 216 722ZM408 1031C408 1045 395 1055 380 1055C372 1055 365 1053 360 1048L267 962L173 1048C167 1053 160 1055 152 1055C137 1055 124 1044 124 1031C124 1026 126 1021 129 1017L245 864C250 859 259 857 267 857C274 857 281 859 287 864L403 1017C406 1021 408 1026 408 1031Z" glyph-name="lcaron" horiz-adv-x="649" unicode="&#318;" /><glyph d="M216 228C216 65 288 -7 452 -7C496 -7 519 6 519 33C519 60 496 73 455 73C329 73 296 142 296 228V722C296 750 284 773 257 773C229 773 216 750 216 722ZM196 909C196 882 218 859 246 859H292C320 859 342 882 342 909V954C342 981 320 1004 292 1004H246C218 1004 196 981 196 954Z" glyph-name="ldot" horiz-adv-x="649" unicode="&#320;" /><glyph d="M109 344 498 73C506 67 516 64 526 64C549 64 567 81 567 102C567 116 564 130 552 138L196 380L552 622C564 630 567 644 567 658C567 681 553 696 526 696C516 696 506 693 498 687L109 416C99 409 89 401 89 380C89 361 99 351 109 344Z" glyph-name="less" horiz-adv-x="649" unicode="&lt;" /><glyph d="M211 261 435 367C457 377 470 395 458 421C449 440 427 442 404 431L181 325C158 314 146 297 155 277C167 251 189 250 211 261ZM216 228C216 65 288 -7 452 -7C496 -7 519 6 519 33C519 60 496 73 455 73C329 73 296 142 296 228V722C296 750 284 773 257 773C229 773 216 750 216 722Z" glyph-name="lslash" horiz-adv-x="649" unicode="&#322;" /><glyph d="M66 37C66 9 79 -13 106 -13C133 -13 146 10 146 37V365C146 432 180 459 216 459C256 459 285 430 285 366V37C285 9 298 -13 325 -13C352 -13 365 10 365 37V367C365 430 394 459 439 459C479 459 503 428 503 366V37C503 9 516 -13 543 -13C570 -13 583 10 583 37V367C583 477 519 539 443 539C402 539 356 516 329 492C309 517 272 539 231 539C196 539 165 519 150 496C138 527 125 536 108 536C81 536 66 514 66 486Z" glyph-name="m" horiz-adv-x="649" unicode="m" /><glyph d="M132 598C132 576 149 558 170 558H459C480 558 498 576 498 598C498 618 479 636 459 636H170C150 636 132 618 132 598Z" glyph-name="macron" horiz-adv-x="649" unicode="&#175;" /><glyph d="M75 380C75 352 98 338 125 340H524C551 340 574 353 574 380C574 407 551 422 524 420H125C98 420 75 408 75 380Z" glyph-name="minus" horiz-adv-x="649" unicode="&#8722;" /><glyph d="M128 183C148 163 174 169 192 190L325 323L459 189C478 169 503 163 522 182C541 201 534 227 515 246L381 379L515 512C534 532 541 557 522 576C503 595 476 590 458 569L325 436L192 569C173 588 148 596 128 576C109 556 116 532 135 512L268 379L135 246C116 227 108 202 128 183Z" glyph-name="multiply" horiz-adv-x="649" unicode="&#215;" /><glyph d="M141 37C141 10 154 -13 181 -13C208 -13 221 10 221 37V373C256 413 299 461 354 461C445 461 453 376 453 286V37C453 9 466 -13 493 -13C519 -13 533 10 533 37V286C533 435 485 539 365 539C307 539 254 504 221 467V486C221 513 208 535 181 535C154 535 141 513 141 486Z" glyph-name="n" horiz-adv-x="649" unicode="n" /><glyph d="M141 37C141 10 154 -13 181 -13C208 -13 221 10 221 37V373C256 413 299 461 354 461C445 461 453 376 453 286V37C453 9 466 -13 493 -13C519 -13 533 10 533 37V286C533 435 485 539 365 539C307 539 254 504 221 467V486C221 513 208 535 181 535C154 535 141 513 141 486ZM275 689C275 665 295 647 317 647C328 647 343 656 348 664L417 761C422 768 424 776 424 784C424 807 405 827 382 827C371 827 357 819 348 806L283 713C278 706 275 698 275 689Z" glyph-name="nacute" horiz-adv-x="649" unicode="&#324;" /><glyph d="M141 37C141 10 154 -13 181 -13C208 -13 221 10 221 37V373C256 413 299 461 354 461C445 461 453 376 453 286V37C453 9 466 -13 493 -13C519 -13 533 10 533 37V286C533 435 485 539 365 539C307 539 254 504 221 467V486C221 513 208 535 181 535C154 535 141 513 141 486ZM480 818C480 832 467 842 452 842C444 842 437 840 432 835L339 749L245 835C239 840 232 842 224 842C209 842 196 831 196 818C196 813 198 808 201 804L317 651C322 646 331 644 339 644C346 644 353 646 359 651L475 804C478 808 480 813 480 818Z" glyph-name="ncaron" horiz-adv-x="649" unicode="&#328;" /><glyph d="M565 517C561 672 452 769 325 769C198 769 85 670 85 517C85 360 190 269 325 269C347 269 376 278 396 282C349 209 284 127 216 60C207 52 203 39 203 26C203 5 221 -14 241 -14C254 -14 268 -9 277 1C355 86 424 172 485 273C523 336 565 417 565 517ZM475 517C475 429 422 349 325 349C225 349 165 417 165 517C165 615 236 689 325 689C415 689 475 616 475 517Z" glyph-name="nine" horiz-adv-x="649" unicode="9" /><glyph d="M141 37C141 10 154 -13 181 -13C208 -13 221 10 221 37V373C256 413 299 461 354 461C445 461 453 376 453 286V37C453 9 466 -13 493 -13C519 -13 533 10 533 37V286C533 435 485 539 365 539C307 539 254 504 221 467V486C221 513 208 535 181 535C154 535 141 513 141 486ZM140 714C140 693 157 675 179 675C197 675 213 689 216 707C220 725 232 733 244 733C262 733 284 719 298 708C324 689 352 671 384 667C388 667 391 666 395 666C447 666 492 703 502 755C503 758 504 761 504 762C504 784 485 801 465 801C447 801 431 787 427 771C423 750 413 744 400 744C382 744 359 758 345 769C320 788 291 807 259 810C256 810 253 811 248 811C197 811 151 773 140 722Z" glyph-name="ntilde" horiz-adv-x="649" unicode="&#241;" /><glyph d="M254 26C254 8 269 -13 296 -13C312 -13 325 1 331 18L611 704C614 710 618 727 618 734C618 759 603 773 578 773C558 773 545 752 538 735L260 56C257 50 254 33 254 26ZM16 26C16 8 31 -13 58 -13C74 -13 87 1 93 18L373 704C376 710 380 727 380 734C380 759 365 773 340 773C320 773 307 752 300 735L22 56C19 50 16 33 16 26ZM64 497H644C672 497 694 510 694 535C694 562 672 577 644 577H64C36 577 14 563 14 535C14 509 36 497 64 497ZM14 210H594C622 210 644 223 644 248C644 275 622 290 594 290H14C-14 290 -36 276 -36 248C-36 222 -14 210 14 210Z" glyph-name="numbersign" horiz-adv-x="649" unicode="#" /><glyph d="M85 263C85 105 184 -16 325 -16C465 -16 565 107 565 263C565 421 463 544 325 544C182 544 85 421 85 263ZM165 263C165 382 223 464 325 464C426 464 485 383 485 263C485 154 428 64 325 64C222 64 165 154 165 263Z" glyph-name="o" horiz-adv-x="649" unicode="o" /><glyph d="M85 263C85 105 184 -16 325 -16C465 -16 565 107 565 263C565 421 463 544 325 544C182 544 85 421 85 263ZM165 263C165 382 223 464 325 464C426 464 485 383 485 263C485 154 428 64 325 64C222 64 165 154 165 263ZM260 698C260 674 280 656 302 656C313 656 328 665 333 673L402 770C407 777 409 785 409 793C409 816 390 836 367 836C356 836 342 828 333 815L268 722C263 715 260 707 260 698Z" glyph-name="oacute" horiz-adv-x="649" unicode="&#243;" /><glyph d="M85 263C85 105 184 -16 325 -16C465 -16 565 107 565 263C565 421 463 544 325 544C182 544 85 421 85 263ZM165 263C165 382 223 464 325 464C426 464 485 383 485 263C485 154 428 64 325 64C222 64 165 154 165 263ZM313 667C403 667 475 735 475 810C475 828 460 844 441 844C423 844 409 830 407 812C403 777 367 735 313 735C259 735 224 777 219 812C218 830 204 844 185 844C166 844 151 829 151 810C151 735 224 667 313 667Z" glyph-name="obreve" horiz-adv-x="649" unicode="&#335;" /><glyph d="M85 263C85 105 184 -16 325 -16C465 -16 565 107 565 263C565 421 463 544 325 544C182 544 85 421 85 263ZM165 263C165 382 223 464 325 464C426 464 485 383 485 263C485 154 428 64 325 64C222 64 165 154 165 263ZM180 676C180 662 193 652 208 652C216 652 223 654 228 659L321 745L415 659C421 654 428 652 436 652C451 652 464 663 464 676C464 681 462 686 459 690L343 843C338 848 329 850 321 850C314 850 307 848 301 843L185 690C182 686 180 681 180 676Z" glyph-name="ocircumflex" horiz-adv-x="649" unicode="&#244;" /><glyph d="M86 666C86 638 98 616 126 616C154 616 166 639 166 666V723C166 750 153 773 126 773C99 773 86 751 86 723ZM483 666C483 638 495 616 523 616C551 616 563 639 563 666V723C563 750 550 773 523 773C496 773 483 751 483 723ZM85 263C85 105 184 -16 325 -16C465 -16 565 107 565 263C565 421 463 544 325 544C182 544 85 421 85 263ZM165 263C165 382 223 464 325 464C426 464 485 383 485 263C485 154 428 64 325 64C222 64 165 154 165 263Z" glyph-name="odieresis" horiz-adv-x="649" unicode="&#246;" /><glyph d="M-82 263C-82 105 7 -16 148 -16C288 -16 378 107 378 263C378 421 276 544 148 544C15 544 -82 421 -82 263ZM-2 263C-2 382 56 464 148 464C239 464 298 383 298 263C298 154 251 64 148 64C45 64 -2 154 -2 263ZM298 274C298 105 379 -15 546 -15C624 -15 719 39 719 86C719 110 702 122 682 122C648 122 632 65 538 65C444 65 389 127 380 246H663C706 246 730 269 730 312C730 418 667 544 525 544C399 544 298 423 298 274ZM386 326C403 398 432 464 523 464C610 464 637 410 643 326Z" glyph-name="oe" horiz-adv-x="649" unicode="&#339;" /><glyph d="M378 -262C400 -262 418 -248 418 -225C418 -204 400 -187 368 -187H293L400 -51C411 -37 420 -8 399 8C380 23 351 13 342 1L202 -196C192 -210 190 -220 190 -227C190 -245 207 -262 226 -262Z" glyph-name="ogonek" horiz-adv-x="412" unicode="&#731;" /><glyph d="M85 263C85 105 184 -16 325 -16C465 -16 565 107 565 263C565 421 463 544 325 544C182 544 85 421 85 263ZM165 263C165 382 223 464 325 464C426 464 485 383 485 263C485 154 428 64 325 64C222 64 165 154 165 263ZM384 699C384 675 364 657 342 657C331 657 316 666 311 674L242 771C237 778 235 786 235 794C235 817 254 837 277 837C288 837 302 829 311 816L376 723C381 716 384 708 384 699Z" glyph-name="ograve" horiz-adv-x="649" unicode="&#242;" /><glyph d="M85 263C85 105 184 -16 325 -16C465 -16 565 107 565 263C565 421 463 544 325 544C182 544 85 421 85 263ZM165 263C165 382 223 464 325 464C426 464 485 383 485 263C485 154 428 64 325 64C222 64 165 154 165 263ZM359 699C359 675 379 657 401 657C412 657 427 666 432 674L501 771C506 778 508 786 508 794C508 817 489 837 466 837C455 837 441 829 432 816L367 723C362 716 359 708 359 699ZM167 699C167 675 187 657 209 657C220 657 235 666 240 674L309 771C314 778 316 786 316 794C316 817 297 837 274 837C263 837 249 829 240 816L175 723C170 716 167 708 167 699Z" glyph-name="ohungarumlaut" horiz-adv-x="649" unicode="&#337;" /><glyph d="M85 263C85 105 184 -16 325 -16C465 -16 565 107 565 263C565 421 463 544 325 544C182 544 85 421 85 263ZM165 263C165 382 223 464 325 464C426 464 485 383 485 263C485 154 428 64 325 64C222 64 165 154 165 263ZM134 755C134 733 151 715 172 715H461C482 715 500 733 500 755C500 775 481 793 461 793H172C152 793 134 775 134 755Z" glyph-name="omacron" horiz-adv-x="649" unicode="&#333;" /><glyph d="M122 570C122 553 140 537 158 537C172 537 186 547 198 557L329 673V40C329 12 342 -10 369 -10C396 -10 409 13 409 40V705C409 740 393 770 351 770C315 770 294 750 280 737L149 621C130 604 122 591 122 570Z" glyph-name="one" horiz-adv-x="649" unicode="1" /><glyph d="M316 329C220 329 139 420 139 524C139 626 220 718 316 718C412 718 493 626 493 524C493 420 412 329 316 329ZM316 643C254 643 214 595 214 524C214 452 254 404 316 404C378 404 422 452 422 524C422 595 378 643 316 643ZM462 326C444 326 423 341 423 359V687C423 705 441 720 459 720C476 720 494 705 494 687V359C494 341 479 326 462 326ZM192 95.2087H472C500 95.2087 522 106.9008 522 138.3796C522 162.6633 500 174.3554 472 174.3554H192C164 174.3554 142 163.5627 142 138.3796C142 106.0014 164 95.2087 192 95.2087Z" glyph-name="ordfeminine" horiz-adv-x="649" unicode="&#170;" /><glyph d="M331 370C435 370 516 452 516 552C516 658 445 746 331 746C213 746 144 658 144 552C144 452 226 370 331 370ZM331 665C392 665 434 617 434 552C434 491 392 445 331 445C267 445 218 484 218 552C218 617 267 665 331 665ZM192 95.2087H472C500 95.2087 522 106.9008 522 138.3796C522 162.6633 500 174.3554 472 174.3554H192C164 174.3554 142 163.5627 142 138.3796C142 106.0014 164 95.2087 192 95.2087Z" glyph-name="ordmasculine" horiz-adv-x="649" unicode="&#186;" /><glyph d="M41 -37C41 -56 60 -73 76 -73C89 -73 99 -68 108 -58L597 529C604 538 609 552 609 564C609 583 593 601 576 601C562 601 553 596 543 587L55 -1C47 -10 41 -25 41 -37ZM85 263C85 105 184 -16 325 -16C465 -16 565 107 565 263C565 421 463 544 325 544C182 544 85 421 85 263ZM165 263C165 382 223 464 325 464C426 464 485 383 485 263C485 154 428 64 325 64C222 64 165 154 165 263Z" glyph-name="oslash" horiz-adv-x="649" unicode="&#248;" /><glyph d="M41 -37C41 -56 60 -73 76 -73C89 -73 99 -68 108 -58L597 529C604 538 609 552 609 564C609 583 593 601 576 601C562 601 553 596 543 587L55 -1C47 -10 41 -25 41 -37ZM85 263C85 105 184 -16 325 -16C465 -16 565 107 565 263C565 421 463 544 325 544C182 544 85 421 85 263ZM165 263C165 382 223 464 325 464C426 464 485 383 485 263C485 154 428 64 325 64C222 64 165 154 165 263ZM255 701C255 677 275 659 297 659C308 659 323 668 328 676L397 773C402 780 404 788 404 796C404 819 385 839 362 839C351 839 337 831 328 818L263 725C258 718 255 710 255 701Z" glyph-name="oslashacute" horiz-adv-x="649" unicode="&#511;" /><glyph d="M85 263C85 105 184 -16 325 -16C465 -16 565 107 565 263C565 421 463 544 325 544C182 544 85 421 85 263ZM165 263C165 382 223 464 325 464C426 464 485 383 485 263C485 154 428 64 325 64C222 64 165 154 165 263ZM132 714C132 693 149 675 171 675C189 675 205 689 208 707C212 725 224 733 236 733C254 733 276 719 290 708C316 689 344 671 376 667C380 667 383 666 387 666C439 666 484 703 494 755C495 758 496 761 496 762C496 784 477 801 457 801C439 801 423 787 419 771C415 750 405 744 392 744C374 744 351 758 337 769C312 788 283 807 251 810C248 810 245 811 240 811C189 811 143 773 132 722Z" glyph-name="otilde" horiz-adv-x="649" unicode="&#245;" /><glyph d="M114 487C114 514 127 537 154 537C181 537 194 515 194 487V473C223 507 281 540 341 540C457 540 563 447 563 260C563 96 476 -15 350 -15C292 -15 238 8 194 50V-199C194 -227 181 -249 154 -249C127 -249 114 -226 114 -199ZM194 354V169C226 105 279 63 347 63C433 63 483 139 483 260C483 395 426 461 335 461C277 461 218 412 194 354Z" glyph-name="p" horiz-adv-x="649" unicode="p" /><glyph d="M398 40C398 13 385 -10 358 -10C331 -10 318 12 318 40V297H296C166 297 56 359 56 495C56 623 154 701 296 701H338C376 701 398 678 398 641ZM545 39C545 11 533 -11 505 -11C477 -11 465 12 465 39V650C465 677 478 700 505 700C532 700 545 678 545 650Z" glyph-name="paragraph" horiz-adv-x="649" unicode="&#182;" /><glyph d="M429 -5C437 -10 447 -13 457 -13C484 -13 495 7 495 25C495 42 477 61 465 69C376 126 309 229 309 377C311 531 371 630 465 692C478 701 492 719 492 735C492 763 474 773 457 773C447 773 437 770 429 764C315 685 229 568 229 377C229 187 317 70 429 -5Z" glyph-name="parenleft" horiz-adv-x="649" unicode="(" /><glyph d="M321 765C313 770 303 773 293 773C266 773 255 753 255 735C255 718 273 699 285 691C374 634 441 531 441 383C439 229 379 130 285 68C272 59 258 41 258 25C258 -3 276 -13 293 -13C303 -13 313 -10 321 -4C435 75 521 192 521 383C521 573 433 690 321 765Z" glyph-name="parenright" horiz-adv-x="649" unicode=")" /><glyph d="M379 128C379 57 430 -13 507 -13C582 -13 634 60 634 132C634 204 582 276 507 276C433 276 379 201 379 128ZM457 131C457 164 473 196 507 196C540 196 557 163 557 131C557 102 538 67 507 67C477 67 457 100 457 131ZM14 625C14 554 65 484 142 484C217 484 269 557 269 629C269 701 217 773 142 773C68 773 14 698 14 625ZM92 628C92 661 108 693 142 693C175 693 192 660 192 628C192 599 173 564 142 564C112 564 92 597 92 628ZM142 26C142 8 157 -13 184 -13C200 -13 213 1 219 18L499 704C502 710 506 727 506 734C506 759 491 773 466 773C446 773 433 752 426 735L148 56C145 50 142 33 142 26Z" glyph-name="percent" horiz-adv-x="649" unicode="%" /><glyph d="M254 50C254 13 277 -10 314 -10H337C374 -10 397 12 397 50V77C397 115 374 137 337 137H314C277 137 254 114 254 77Z" glyph-name="period" horiz-adv-x="649" unicode="." /><glyph d="M254 332C254 295 277 272 314 272H337C374 272 397 294 397 332V359C397 397 374 419 337 419H314C277 419 254 396 254 359Z" glyph-name="periodcentered" horiz-adv-x="649" unicode="&#183;" /><glyph d="M76 380C76 352 99 338 126 340H286V151C286 123 299 101 326 101C353 101 366 124 366 151V340H526C553 340 576 353 576 380C576 407 553 422 526 420H366V608C366 635 354 658 326 658C298 658 286 636 286 608V420H126C99 420 76 408 76 380Z" glyph-name="plus" horiz-adv-x="649" unicode="+" /><glyph d="M76 381C76 353 99 339 126 341H286V152C286 124 299 102 326 102C353 102 366 125 366 152V341H526C553 341 576 354 576 381C576 408 553 423 526 421H366V609C366 636 354 659 326 659C298 659 286 637 286 609V421H126C99 421 76 409 76 381ZM75 101C75 73 98 59 125 61H524C551 61 574 74 574 101C574 128 551 143 524 141H125C98 141 75 129 75 101Z" glyph-name="plusminus" horiz-adv-x="649" unicode="&#177;" /><glyph d="M535 487C535 514 522 537 495 537C468 537 455 515 455 487V473C426 507 368 540 308 540C192 540 86 447 86 260C86 96 173 -15 299 -15C357 -15 411 8 455 50V-199C455 -227 468 -249 495 -249C522 -249 535 -226 535 -199ZM455 354V169C423 105 370 63 302 63C216 63 166 139 166 260C166 395 223 461 314 461C372 461 431 412 455 354Z" glyph-name="q" horiz-adv-x="649" unicode="q" /><glyph d="M154 473C182 473 194 495 194 521C194 589 258 626 313 626C373 626 429 594 429 537C429 483 383 446 364 424C338 395 286 354 286 291C286 263 299 241 326 241C353 241 366 264 366 291C366 318 403 348 425 373C461 411 509 472 509 539C509 630 419 706 318 706C212 706 114 630 114 520C114 495 127 473 154 473ZM246 50C246 13 269 -10 306 -10H329C366 -10 389 12 389 50V77C389 115 366 137 329 137H306C269 137 246 114 246 77Z" glyph-name="question" horiz-adv-x="649" unicode="?" /><glyph d="M559 223C531 223 519 201 519 175C519 107 455 70 400 70C340 70 284 102 284 159C284 213 330 250 349 272C375 301 427 342 427 405C427 433 414 455 387 455C360 455 347 432 347 405C347 378 310 348 288 323C252 285 204 224 204 157C204 66 294 -10 395 -10C501 -10 599 66 599 176C599 201 586 223 559 223ZM467 646C467 683 444 706 407 706H384C347 706 324 684 324 646V619C324 581 347 559 384 559H407C444 559 467 582 467 619Z" glyph-name="questiondown" horiz-adv-x="649" unicode="&#191;" /><glyph d="M138 500C140 474 152 450 178 450C205 450 215 471 218 493C234 722 235 723 235 725C235 748 213 770 180 770C150 770 123 747 125 720ZM428 500C430 474 442 450 468 450C495 450 505 471 508 493C524 722 525 723 525 725C525 748 503 770 470 770C440 770 413 747 415 720Z" glyph-name="quotedbl" horiz-adv-x="649" unicode="&quot;" /><glyph d="M600 176C598 202 586 226 560 226C533 226 523 205 520 183C504 -46 503 -47 503 -49C503 -72 525 -94 558 -94C588 -94 615 -71 613 -44ZM310 176C308 202 296 226 270 226C243 226 233 205 230 183C214 -46 213 -47 213 -49C213 -72 235 -94 268 -94C298 -94 325 -71 323 -44Z" glyph-name="quotedblbase" horiz-adv-x="649" unicode="&#8222;" /><glyph d="M548 485C548 475 537 455 513 455C488 455 473 472 457 495L399 579C381 605 370 625 370 649C370 687 393 709 430 709H450C483 709 513 686 519 652L540 539C545 510 548 494 548 485ZM279 485C279 475 268 455 244 455C219 455 204 472 188 495L130 579C112 605 101 625 101 649C101 687 124 709 161 709H181C214 709 244 686 250 652L271 539C276 510 279 494 279 485Z" glyph-name="quotedblleft" horiz-adv-x="649" unicode="&#8220;" /><glyph d="M370 485C370 475 381 455 405 455C430 455 445 472 461 495L519 579C537 605 548 625 548 649C548 687 525 709 488 709H468C435 709 405 686 399 652L378 539C373 510 370 494 370 485ZM101 485C101 475 112 455 136 455C161 455 176 472 192 495L250 579C268 605 279 625 279 649C279 687 256 709 219 709H199C166 709 136 686 130 652L109 539C104 510 101 494 101 485Z" glyph-name="quotedblright" horiz-adv-x="649" unicode="&#8221;" /><glyph d="M404 485C404 475 393 455 369 455C344 455 329 472 313 495L255 579C237 605 226 625 226 649C226 687 249 709 286 709H306C339 709 369 686 375 652L396 539C401 510 404 494 404 485Z" glyph-name="quoteleft" horiz-adv-x="649" unicode="&#8216;" /><glyph d="M246 485C246 475 257 455 281 455C306 455 321 472 337 495L395 579C413 605 424 625 424 649C424 687 401 709 364 709H344C311 709 281 686 275 652L254 539C249 510 246 494 246 485Z" glyph-name="quoteright" horiz-adv-x="649" unicode="&#8217;" /><glyph d="M455 181C453 207 441 231 415 231C388 231 378 210 375 188C359 -41 358 -42 358 -44C358 -67 380 -89 413 -89C443 -89 470 -66 468 -39Z" glyph-name="quotesinglbase" horiz-adv-x="649" unicode="&#8218;" /><glyph d="M283 500C285 474 297 450 323 450C350 450 360 471 363 493C379 722 380 723 380 725C380 748 358 770 325 770C295 770 268 747 270 720Z" glyph-name="quotesingle" horiz-adv-x="649" unicode="'" /><glyph d="M177 37C177 10 190 -13 217 -13C244 -13 257 9 257 37V369C289 416 344 459 391 459C445 459 469 427 479 389C483 372 494 350 519 350C546 350 559 373 559 401C558 468 490 539 402 539C352 539 286 502 257 466C257 514 245 535 217 535C190 535 177 513 177 486Z" glyph-name="r" horiz-adv-x="649" unicode="r" /><glyph d="M177 37C177 10 190 -13 217 -13C244 -13 257 9 257 37V369C289 416 344 459 391 459C445 459 469 427 479 389C483 372 494 350 519 350C546 350 559 373 559 401C558 468 490 539 402 539C352 539 286 502 257 466C257 514 245 535 217 535C190 535 177 513 177 486ZM275 708C275 684 295 666 317 666C328 666 343 675 348 683L417 780C422 787 424 795 424 803C424 826 405 846 382 846C371 846 357 838 348 825L283 732C278 725 275 717 275 708Z" glyph-name="racute" horiz-adv-x="649" unicode="&#341;" /><glyph d="M177 37C177 10 190 -13 217 -13C244 -13 257 9 257 37V369C289 416 344 459 391 459C445 459 469 427 479 389C483 372 494 350 519 350C546 350 559 373 559 401C558 468 490 539 402 539C352 539 286 502 257 466C257 514 245 535 217 535C190 535 177 513 177 486ZM497 825C497 839 484 849 469 849C461 849 454 847 449 842L356 756L262 842C256 847 249 849 241 849C226 849 213 838 213 825C213 820 215 815 218 811L334 658C339 653 348 651 356 651C363 651 370 653 376 658L492 811C495 815 497 820 497 825Z" glyph-name="rcaron" horiz-adv-x="649" unicode="&#345;" /><glyph d="M324 9C143 9 -16 165 -16 350C-16 531 141 691 324 691C507 691 665 531 665 350C665 165 505 9 324 9ZM324 612C185 612 63 489 63 350C63 212 184 88 324 88C462 88 586 212 586 350C586 489 461 612 324 612ZM396 206C387 206 379 209 372 215L287 288V239C287 216 274 199 253 199C232 199 216 216 216 239V448C216 479 232 497 263 497H337C406 497 448 454 448 392C448 330 404 305 374 302L421 271C440 258 441 239 428 223C420 212 408 206 396 206ZM339 353C359 353 378 366 378 384C378 405 362 423 338 423H286V353Z" glyph-name="registered" horiz-adv-x="649" unicode="&#174;" /><glyph d="M201 684C273 684 322 740 322 806C322 872 273 928 201 928C127 928 80 872 80 806C80 740 129 684 201 684ZM201 862C231 862 253 839 253 806C253 774 231 748 201 748C169 748 146 774 146 806C146 839 169 862 201 862Z" glyph-name="ring" horiz-adv-x="412" unicode="&#730;" /><glyph d="M117 99C117 59 211 -16 316 -16C481 -16 532 58 532 147C532 247 452 294 339 309C246 321 213 350 213 395C213 439 251 466 320 466C385 466 420 446 432 418C441 397 462 378 486 378C513 378 522 396 522 423C522 471 448 544 326 544C209 544 132 481 132 389C132 283 220 246 311 231C404 216 452 188 452 140C452 92 410 61 320 61C207 61 203 139 154 139C127 139 117 119 117 99Z" glyph-name="s" horiz-adv-x="649" unicode="s" /><glyph d="M117 99C117 59 211 -16 316 -16C481 -16 532 58 532 147C532 247 452 294 339 309C246 321 213 350 213 395C213 439 251 466 320 466C385 466 420 446 432 418C441 397 462 378 486 378C513 378 522 396 522 423C522 471 448 544 326 544C209 544 132 481 132 389C132 283 220 246 311 231C404 216 452 188 452 140C452 92 410 61 320 61C207 61 203 139 154 139C127 139 117 119 117 99ZM247 706C247 682 267 664 289 664C300 664 315 673 320 681L389 778C394 785 396 793 396 801C396 824 377 844 354 844C343 844 329 836 320 823L255 730C250 723 247 715 247 706Z" glyph-name="sacute" horiz-adv-x="649" unicode="&#347;" /><glyph d="M117 99C117 59 211 -16 316 -16C481 -16 532 58 532 147C532 247 452 294 339 309C246 321 213 350 213 395C213 439 251 466 320 466C385 466 420 446 432 418C441 397 462 378 486 378C513 378 522 396 522 423C522 471 448 544 326 544C209 544 132 481 132 389C132 283 220 246 311 231C404 216 452 188 452 140C452 92 410 61 320 61C207 61 203 139 154 139C127 139 117 119 117 99ZM467 832C467 846 454 856 439 856C431 856 424 854 419 849L326 763L232 849C226 854 219 856 211 856C196 856 183 845 183 832C183 827 185 822 188 818L304 665C309 660 318 658 326 658C333 658 340 660 346 665L462 818C465 822 467 827 467 832Z" glyph-name="scaron" horiz-adv-x="649" unicode="&#353;" /><glyph d="M117 99C117 59 211 -16 316 -16C481 -16 532 58 532 147C532 247 452 294 339 309C246 321 213 350 213 395C213 439 251 466 320 466C385 466 420 446 432 418C441 397 462 378 486 378C513 378 522 396 522 423C522 471 448 544 326 544C209 544 132 481 132 389C132 283 220 246 311 231C404 216 452 188 452 140C452 92 410 61 320 61C207 61 203 139 154 139C127 139 117 119 117 99ZM267 -20V-94C267 -113 285 -131 307 -131C330 -131 347 -147 347 -168C347 -188 329 -206 307 -206C284 -206 267 -223 267 -243C267 -262 284 -280 304 -280C371 -280 422 -231 422 -168C422 -116 389 -75 342 -61V-20C342 0 326 17 304 17C284 17 267 -1 267 -20Z" glyph-name="scedilla" horiz-adv-x="649" unicode="&#351;" /><glyph d="M94 388C94 281 217 246 337 246C402 246 474 239 474 165C474 101 403 77 331 77C280 77 221 99 191 145C179 163 163 179 142 179C118 179 103 164 103 136C103 96 188 -3 337 -3C455 -1 554 40 554 165C553 210 539 243 515 268C538 294 554 327 554 371C551 473 437 507 342 516C279 522 200 521 200 594C200 657 265 683 327 683C430 683 452 598 493 598C515 598 536 611 536 637C536 686 453 763 327 763C213 763 120 696 120 594C120 555 130 525 146 502C117 473 94 434 94 388ZM179 388C179 414 191 440 210 453C252 440 290 441 340 436C379 433 464 415 464 371C464 344 448 325 431 314C412 319 363 321 342 323C287 328 179 327 179 388Z" glyph-name="section" horiz-adv-x="649" unicode="&#167;" /><glyph d="M254 416C254 379 277 356 314 356H337C374 356 397 378 397 416V443C397 481 374 503 337 503H314C277 503 254 480 254 443ZM162 -154C162 -164 173 -184 197 -184C222 -184 241 -170 257 -147L395 47C414 74 424 93 424 117C424 155 401 177 364 177H344C311 177 288 156 276 128L177 -103C170 -119 162 -135 162 -154Z" glyph-name="semicolon" horiz-adv-x="649" unicode=";" /><glyph d="M96 718C96 691 119 678 146 678H466C444 575 355 489 302 396C241 289 222 164 222 40C222 12 235 -10 262 -10C289 -10 302 13 302 40C302 146 316 254 369 347C441 471 556 568 556 708C556 735 534 758 506 758H146C118 758 96 746 96 718Z" glyph-name="seven" horiz-adv-x="649" unicode="7" /><glyph d="M86 239C90 84 199 -13 326 -13C453 -13 566 86 566 239C566 396 461 487 326 487C304 487 275 478 255 474C302 547 367 629 435 696C444 704 448 717 448 730C448 751 430 770 410 770C397 770 383 765 374 755C296 670 227 584 166 483C128 420 86 339 86 239ZM176 239C176 327 229 407 326 407C426 407 486 339 486 239C486 141 415 67 326 67C236 67 176 140 176 239Z" glyph-name="six" horiz-adv-x="649" unicode="6" /><glyph d="M142 26C142 8 157 -13 184 -13C200 -13 213 1 219 18L499 704C502 710 506 727 506 734C506 759 491 773 466 773C446 773 433 752 426 735L148 56C145 50 142 33 142 26Z" glyph-name="slash" horiz-adv-x="649" unicode="/" /><glyph glyph-name="space" horiz-adv-x="649" unicode=" " /><glyph d="M167 0C156 0 144 7 136 15C125 28 123 44 131 60C158 118 203 215 203 263C203 289 190 316 176 346C157 388 137 435 137 497C137 555 155 607 196 644C233 677 282 696 337 696C428 696 484 675 488 674C510 666 521 644 515 622C507 601 484 589 463 596C461 596 415 616 337 616C276 616 216 577 216 497C216 453 231 417 248 381C264 344 282 307 282 263C282 215 258 136 236 80H497C529 80 556 70 556 40C556 10 531 0 495 0ZM381 281H145C122 281 104 297 104 319C104 341 122 357 145 357H381C403 357 422 341 422 319C422 297 403 281 381 281Z" glyph-name="sterling" horiz-adv-x="649" unicode="&#163;" /><glyph d="M90 487C90 460 113 447 140 447H225V201C225 44 269 -13 390 -13C452 -13 519 19 519 52C519 79 509 93 482 93C453 93 444 67 382 67C305 67 305 113 305 199V447H466C493 447 516 460 516 487C516 514 493 527 466 527H305V628C305 655 295 678 267 678C239 678 225 657 225 628V527H140C113 527 90 514 90 487Z" glyph-name="t" horiz-adv-x="649" unicode="t" /><glyph d="M90 487C90 460 113 447 140 447H225V201C225 44 269 -13 390 -13C452 -13 519 19 519 52C519 79 509 93 482 93C453 93 444 67 382 67C305 67 305 113 305 199V447H466C493 447 516 460 516 487C516 514 493 527 466 527H305V628C305 655 295 678 267 678C239 678 225 657 225 628V527H140C113 527 90 514 90 487ZM456 935C456 949 443 959 428 959C420 959 413 957 408 952L315 866L221 952C215 957 208 959 200 959C185 959 172 948 172 935C172 930 174 925 177 921L293 768C298 763 307 761 315 761C322 761 329 763 335 768L451 921C454 925 456 930 456 935Z" glyph-name="tcaron" horiz-adv-x="649" unicode="&#357;" /><glyph d="M114 662C114 689 127 712 154 712C181 712 194 690 194 662V473C223 507 281 540 341 540C457 540 563 447 563 260C563 96 476 -15 350 -15C292 -15 238 8 194 50V-111C194 -139 181 -161 154 -161C127 -161 114 -138 114 -111ZM194 354V169C226 105 279 63 347 63C433 63 483 139 483 260C483 395 426 461 335 461C277 461 218 412 194 354Z" glyph-name="thorn" horiz-adv-x="649" unicode="&#254;" /><glyph d="M81 84C81 30 220 -13 280 -13C417 -13 547 75 547 229C547 366 479 442 356 463L486 620C509 646 522 670 522 699C522 735 489 758 448 758H129C101 758 79 743 79 718C79 691 102 678 129 678H428L254 465C246 457 243 445 243 434C243 407 266 394 293 394C395 394 467 343 467 231C467 136 378 67 280 67C186 67 169 118 112 118C95 118 81 102 81 84Z" glyph-name="three" horiz-adv-x="649" unicode="3" /><glyph d="M142 614C142 593 159 575 181 575C199 575 215 589 218 607C222 625 234 633 246 633C264 633 286 619 300 608C326 589 354 571 386 567C390 567 393 566 397 566C449 566 494 603 504 655C505 658 506 661 506 662C506 684 487 701 467 701C449 701 433 687 429 671C425 650 415 644 402 644C384 644 361 658 347 669C322 688 293 707 261 710C258 710 255 711 250 711C199 711 153 673 142 622Z" glyph-name="tilde" horiz-adv-x="649" unicode="&#732;" /><glyph d="M109 659C109 637 122 621 145 621C199 621 196 693 308 693C396 693 446 630 446 560C446 487 362 425 291 379C184 311 106 212 106 71C106 24 129 1 186 1H498C525 1 548 14 548 41C548 68 526 81 498 81H187C193 197 256 265 335 315C420 369 526 438 526 560C526 678 435 773 308 773C198 773 109 691 109 659Z" glyph-name="two" horiz-adv-x="649" unicode="2" /><glyph d="M457 -147H209C186 -147 166 -127 166 -105C166 -53 221 -9 289 53C347 102 391 130 391 174C391 205 366 239 316 239C273 239 253 203 239 186C226 171 201 160 183 172C158 188 159 211 172 229C175 233 225 314 316 314C406 314 476 248 476 165C476 107 416 60 345 -1C324 -21 283 -54 268 -71H457C480 -71 500 -84 500 -107C500 -129 480 -147 457 -147Z" glyph-name="two.sub" horiz-adv-x="649" /><glyph d="M114 242C114 104 163 -16 314 -16C372 -16 427 12 466 54V37C466 9 480 -13 507 -13C533 -13 546 10 546 37V486C546 513 532 536 506 536C479 536 466 514 466 486V167C443 119 394 64 312 64C216 67 194 152 194 257V486C194 513 180 536 153 536C127 536 114 512 114 486Z" glyph-name="u" horiz-adv-x="649" unicode="u" /><glyph d="M114 242C114 104 163 -16 314 -16C372 -16 427 12 466 54V37C466 9 480 -13 507 -13C533 -13 546 10 546 37V486C546 513 532 536 506 536C479 536 466 514 466 486V167C443 119 394 64 312 64C216 67 194 152 194 257V486C194 513 180 536 153 536C127 536 114 512 114 486ZM275 688C275 664 295 646 317 646C328 646 343 655 348 663L417 760C422 767 424 775 424 783C424 806 405 826 382 826C371 826 357 818 348 805L283 712C278 705 275 697 275 688Z" glyph-name="uacute" horiz-adv-x="649" unicode="&#250;" /><glyph d="M114 242C114 104 163 -16 314 -16C372 -16 427 12 466 54V37C466 9 480 -13 507 -13C533 -13 546 10 546 37V486C546 513 532 536 506 536C479 536 466 514 466 486V167C443 119 394 64 312 64C216 67 194 152 194 257V486C194 513 180 536 153 536C127 536 114 512 114 486ZM330 656C420 656 492 724 492 799C492 817 477 833 458 833C440 833 426 819 424 801C420 766 384 724 330 724C276 724 241 766 236 801C235 819 221 833 202 833C183 833 168 818 168 799C168 724 241 656 330 656Z" glyph-name="ubreve" horiz-adv-x="649" unicode="&#365;" /><glyph d="M114 242C114 104 163 -16 314 -16C372 -16 427 12 466 54V37C466 9 480 -13 507 -13C533 -13 546 10 546 37V486C546 513 532 536 506 536C479 536 466 514 466 486V167C443 119 394 64 312 64C216 67 194 152 194 257V486C194 513 180 536 153 536C127 536 114 512 114 486ZM191 660C191 646 204 636 219 636C227 636 234 638 239 643L332 729L426 643C432 638 439 636 447 636C462 636 475 647 475 660C475 665 473 670 470 674L354 827C349 832 340 834 332 834C325 834 318 832 312 827L196 674C193 670 191 665 191 660Z" glyph-name="ucircumflex" horiz-adv-x="649" unicode="&#251;" /><glyph d="M114 666C114 638 126 616 154 616C182 616 194 639 194 666V723C194 750 181 773 154 773C127 773 114 751 114 723ZM466 666C466 638 478 616 506 616C534 616 546 639 546 666V723C546 750 533 773 506 773C479 773 466 751 466 723ZM114 242C114 104 163 -16 314 -16C372 -16 427 12 466 54V37C466 9 480 -13 507 -13C533 -13 546 10 546 37V486C546 513 532 536 506 536C479 536 466 514 466 486V167C443 119 394 64 312 64C216 67 194 152 194 257V486C194 513 180 536 153 536C127 536 114 512 114 486Z" glyph-name="udieresis" horiz-adv-x="649" unicode="&#252;" /><glyph d="M114 242C114 104 163 -16 314 -16C372 -16 427 12 466 54V37C466 9 480 -13 507 -13C533 -13 546 10 546 37V486C546 513 532 536 506 536C479 536 466 514 466 486V167C443 119 394 64 312 64C216 67 194 152 194 257V486C194 513 180 536 153 536C127 536 114 512 114 486ZM398 685C398 661 378 643 356 643C345 643 330 652 325 660L256 757C251 764 249 772 249 780C249 803 268 823 291 823C302 823 316 815 325 802L390 709C395 702 398 694 398 685Z" glyph-name="ugrave" horiz-adv-x="649" unicode="&#249;" /><glyph d="M456 717C456 693 476 675 498 675C509 675 524 684 529 692L598 789C603 796 605 804 605 812C605 835 586 855 563 855C552 855 538 847 529 834L464 741C459 734 456 726 456 717ZM110 717C110 693 130 675 152 675C163 675 178 684 183 692L252 789C257 796 259 804 259 812C259 835 240 855 217 855C206 855 192 847 183 834L118 741C113 734 110 726 110 717ZM114 242C114 104 163 -16 314 -16C372 -16 427 12 466 54V37C466 9 480 -13 507 -13C533 -13 546 10 546 37V486C546 513 532 536 506 536C479 536 466 514 466 486V167C443 119 394 64 312 64C216 67 194 152 194 257V486C194 513 180 536 153 536C127 536 114 512 114 486Z" glyph-name="uhungarumlaut" horiz-adv-x="649" unicode="&#369;" /><glyph d="M114 242C114 104 163 -16 314 -16C372 -16 427 12 466 54V37C466 9 480 -13 507 -13C533 -13 546 10 546 37V486C546 513 532 536 506 536C479 536 466 514 466 486V167C443 119 394 64 312 64C216 67 194 152 194 257V486C194 513 180 536 153 536C127 536 114 512 114 486ZM153 746C153 724 170 706 191 706H480C501 706 519 724 519 746C519 766 500 784 480 784H191C171 784 153 766 153 746Z" glyph-name="umacron" horiz-adv-x="649" unicode="&#363;" /><glyph d="M76 -158C76 -190 99 -200 126 -200H526C553 -200 576 -189 576 -158C576 -131 553 -120 526 -120H126C99 -120 76 -130 76 -158Z" glyph-name="underscore" horiz-adv-x="649" unicode="_" /><glyph d="M84 353C84 150 203 -15 360 -15C460 -15 549 27 549 95V309C549 346 526 369 489 369H356C319 369 296 357 296 329C296 301 318 289 356 289H469V93C450 81 422 67 362 67C240 67 165 218 165 357C165 530 257 633 352 633C451 633 461 553 497 553C524 553 539 570 539 597C539 625 475 715 352 715C200 715 84 554 84 353ZM271 -283C271 -290 278 -303 295 -303C312 -303 324 -293 336 -278L401 -193C415 -175 421 -162 421 -145C421 -119 405 -103 379 -103H366C343 -103 325 -116 318 -137L281 -247C277 -259 271 -269 271 -283Z" glyph-name="uni0122" horiz-adv-x="649" /><glyph d="M89 269C89 133 180 19 312 19C388 19 441 55 460 84V27C460 -60 410 -110 325 -110C223 -110 198 -54 147 -54C124 -54 111 -72 111 -96C111 -139 233 -193 325 -193C453 -193 540 -111 540 31V486C540 513 527 536 500 536C475 536 462 515 460 480C433 511 365 539 315 539C177 539 89 421 89 269ZM169 269C169 365 215 459 316 459C381 454 428 421 460 374V193C434 145 390 99 312 99C220 99 169 191 169 269ZM512 824C512 831 505 844 488 844C471 844 459 834 447 819L382 734C368 716 362 703 362 686C362 660 378 644 404 644H417C440 644 458 657 465 678L502 788C506 800 512 810 512 824Z" glyph-name="uni0123" horiz-adv-x="649" /><glyph d="M100 40C100 13 115 -10 142 -10C169 -10 180 13 180 40V315L464 5C474 -5 487 -10 500 -10C520 -10 535 8 535 26C535 39 527 54 518 64L233 365L492 633C501 642 516 658 516 675C516 698 502 713 478 713C462 713 450 701 440 692L180 416V663C180 690 167 713 140 713C113 713 100 690 100 663ZM213 -265C213 -272 220 -285 237 -285C254 -285 266 -275 278 -260L343 -175C357 -157 363 -144 363 -127C363 -101 347 -85 321 -85H308C285 -85 267 -98 260 -119L223 -229C219 -241 213 -251 213 -265Z" glyph-name="uni0136" horiz-adv-x="649" /><glyph d="M146 37C146 9 159 -13 186 -13C213 -13 226 10 226 37V244L461 2C470 -8 485 -13 498 -13C511 -13 532 4 532 19C532 35 529 46 521 55L288 292L484 461C494 470 507 485 507 499C507 522 492 537 471 537C458 537 444 530 435 521L226 344V723C226 750 213 773 186 773C159 773 146 751 146 723ZM233 -285C233 -292 240 -305 257 -305C274 -305 286 -295 298 -280L363 -195C377 -177 383 -164 383 -147C383 -121 367 -105 341 -105H328C305 -105 287 -118 280 -139L243 -249C239 -261 233 -271 233 -285Z" glyph-name="uni0137" horiz-adv-x="649" /><glyph d="M114 71C114 24 137 1 184 1H526C553 1 576 14 576 41C576 68 554 82 526 81H194V663C194 691 181 713 154 713C127 713 114 690 114 663ZM214 -285C214 -292 221 -305 238 -305C255 -305 267 -295 279 -280L344 -195C358 -177 364 -164 364 -147C364 -121 348 -105 322 -105H309C286 -105 268 -118 261 -139L224 -249C220 -261 214 -271 214 -285Z" glyph-name="uni013B" horiz-adv-x="649" unicode="&#315;" /><glyph d="M216 228C216 65 288 -7 452 -7C496 -7 519 6 519 33C519 60 496 73 455 73C329 73 296 142 296 228V722C296 750 284 773 257 773C229 773 216 750 216 722ZM243 -285C243 -292 250 -305 267 -305C284 -305 296 -295 308 -280L373 -195C387 -177 393 -164 393 -147C393 -121 377 -105 351 -105H338C315 -105 297 -118 290 -139L253 -249C249 -261 243 -271 243 -285Z" glyph-name="uni013C" horiz-adv-x="649" unicode="&#316;" /><glyph d="M98 40C98 13 111 -10 138 -10C165 -10 178 13 178 40V556L427 48C445 12 466 -10 500 -10C536 -10 550 13 550 60V663C550 690 536 713 510 713C483 713 470 691 470 663V146L220 654C206 683 190 713 153 713C116 713 98 690 98 653ZM224 -264C224 -271 231 -284 248 -284C265 -284 277 -274 289 -259L354 -174C368 -156 374 -143 374 -126C374 -100 358 -84 332 -84H319C296 -84 278 -97 271 -118L234 -228C230 -240 224 -250 224 -264Z" glyph-name="uni0145" horiz-adv-x="649" /><glyph d="M141 37C141 10 154 -13 181 -13C208 -13 221 10 221 37V373C256 413 299 461 354 461C445 461 453 376 453 286V37C453 9 466 -13 493 -13C519 -13 533 10 533 37V286C533 435 485 539 365 539C307 539 254 504 221 467V486C221 513 208 535 181 535C154 535 141 513 141 486ZM233 -285C233 -292 240 -305 257 -305C274 -305 286 -295 298 -280L363 -195C377 -177 383 -164 383 -147C383 -121 367 -105 341 -105H328C305 -105 287 -118 280 -139L243 -249C239 -261 233 -271 233 -285Z" glyph-name="uni0146" horiz-adv-x="649" /><glyph d="M116 40C116 12 129 -10 156 -10C183 -10 196 13 196 40V297H322L477 19C488 -1 505 -10 518 -10C535 -10 556 2 556 29C556 38 552 54 547 62L402 315C486 333 557 397 557 498C557 596 486 701 330 701H176C138 701 116 679 116 641ZM196 377V621H334C428 621 477 568 477 498C477 429 423 377 336 377ZM233 -258C233 -265 240 -278 257 -278C274 -278 286 -268 298 -253L363 -168C377 -150 383 -137 383 -120C383 -94 367 -78 341 -78H328C305 -78 287 -91 280 -112L243 -222C239 -234 233 -244 233 -258Z" glyph-name="uni0156" horiz-adv-x="649" /><glyph d="M177 37C177 10 190 -13 217 -13C244 -13 257 9 257 37V369C289 416 344 459 391 459C445 459 469 427 479 389C483 372 494 350 519 350C546 350 559 373 559 401C558 468 490 539 402 539C352 539 286 502 257 466C257 514 245 535 217 535C190 535 177 513 177 486ZM134 -275C134 -282 141 -295 158 -295C175 -295 187 -285 199 -270L264 -185C278 -167 284 -154 284 -137C284 -111 268 -95 242 -95H229C206 -95 188 -108 181 -129L144 -239C140 -251 134 -261 134 -275Z" glyph-name="uni0157" horiz-adv-x="649" /><glyph d="M76 661C76 633 99 621 126 621H286V40C286 12 299 -10 326 -10C353 -10 366 13 366 40V621H526C553 621 576 634 576 661C576 688 554 701 526 701H126C98 701 76 689 76 661ZM288 80V6C288 -13 306 -31 328 -31C351 -31 368 -47 368 -68C368 -88 350 -106 328 -106C305 -106 288 -123 288 -143C288 -162 305 -180 325 -180C392 -180 443 -131 443 -68C443 -16 410 25 363 39V80C363 100 347 117 325 117C305 117 288 99 288 80Z" glyph-name="uni0162" horiz-adv-x="649" /><glyph d="M90 487C90 460 113 447 140 447H225V201C225 44 269 -13 390 -13C452 -13 519 19 519 52C519 79 509 93 482 93C453 93 444 67 382 67C305 67 305 113 305 199V447H466C493 447 516 460 516 487C516 514 493 527 466 527H305V628C305 655 295 678 267 678C239 678 225 657 225 628V527H140C113 527 90 514 90 487ZM289 -18V-92C289 -111 307 -129 329 -129C352 -129 369 -145 369 -166C369 -186 351 -204 329 -204C306 -204 289 -221 289 -241C289 -260 306 -278 326 -278C393 -278 444 -229 444 -166C444 -114 411 -73 364 -59V-18C364 2 348 19 326 19C306 19 289 1 289 -18Z" glyph-name="uni0163" horiz-adv-x="649" /><glyph d="M631 254C631 423 540 543 373 543C295 543 190 489 190 442C190 418 207 406 227 406C261 406 287 463 381 463C475 463 540 401 549 282H236C193 282 179 259 179 216C179 110 242 -16 394 -16C520 -16 631 105 631 254ZM544 202C527 130 488 64 397 64C310 64 273 118 267 202Z" glyph-name="uni01DD" horiz-adv-x="649" unicode="&#477;" /><glyph d="M319 -15C428 -15 539 67 539 189C539 347 399 378 294 431C256 450 206 480 206 537C206 598 257 639 323 639C451 639 432 537 488 537C507 537 523 550 523 578C523 640 440 718 325 716C225 714 126 644 126 537C126 405 222 373 360 303C401 282 459 250 459 189C459 110 402 65 321 65C248 65 198 104 190 167C187 190 176 210 150 210C123 210 110 187 110 160C110 70 213 -15 319 -15ZM243 -275C243 -282 250 -295 267 -295C284 -295 296 -285 308 -270L373 -185C387 -167 393 -154 393 -137C393 -111 377 -95 351 -95H338C315 -95 297 -108 290 -129L253 -239C249 -251 243 -261 243 -275Z" glyph-name="uni0218" horiz-adv-x="649" /><glyph d="M117 99C117 59 211 -16 316 -16C481 -16 532 58 532 147C532 247 452 294 339 309C246 321 213 350 213 395C213 439 251 466 320 466C385 466 420 446 432 418C441 397 462 378 486 378C513 378 522 396 522 423C522 471 448 544 326 544C209 544 132 481 132 389C132 283 220 246 311 231C404 216 452 188 452 140C452 92 410 61 320 61C207 61 203 139 154 139C127 139 117 119 117 99ZM233 -285C233 -292 240 -305 257 -305C274 -305 286 -295 298 -280L363 -195C377 -177 383 -164 383 -147C383 -121 367 -105 341 -105H328C305 -105 287 -118 280 -139L243 -249C239 -261 233 -271 233 -285Z" glyph-name="uni0219" horiz-adv-x="649" /><glyph d="M76 661C76 633 99 621 126 621H286V40C286 12 299 -10 326 -10C353 -10 366 13 366 40V621H526C553 621 576 634 576 661C576 688 554 701 526 701H126C98 701 76 689 76 661ZM233 -284C233 -291 240 -304 257 -304C274 -304 286 -294 298 -279L363 -194C377 -176 383 -163 383 -146C383 -120 367 -104 341 -104H328C305 -104 287 -117 280 -138L243 -248C239 -260 233 -270 233 -284Z" glyph-name="uni021A" horiz-adv-x="649" unicode="&#538;" /><glyph d="M90 487C90 460 113 447 140 447H225V201C225 44 269 -13 390 -13C452 -13 519 19 519 52C519 79 509 93 482 93C453 93 444 67 382 67C305 67 305 113 305 199V447H466C493 447 516 460 516 487C516 514 493 527 466 527H305V628C305 655 295 678 267 678C239 678 225 657 225 628V527H140C113 527 90 514 90 487ZM233 -285C233 -292 240 -305 257 -305C274 -305 286 -295 298 -280L363 -195C377 -177 383 -164 383 -147C383 -121 367 -105 341 -105H328C305 -105 287 -118 280 -139L243 -249C239 -261 233 -271 233 -285Z" glyph-name="uni021B" horiz-adv-x="649" unicode="&#539;" /><glyph d="M114 242C114 104 163 -16 314 -16C372 -16 427 12 466 54V37C466 9 480 -13 507 -13C533 -13 546 10 546 37V486C546 513 532 536 506 536C479 536 466 514 466 486V167C443 119 394 64 312 64C216 67 194 152 194 257V486C194 513 180 536 153 536C127 536 114 512 114 486ZM511 -218C533 -218 551 -204 551 -181C551 -160 533 -143 501 -143H426L533 -7C544 7 553 36 532 52C513 67 484 57 475 45L335 -152C325 -166 323 -176 323 -183C323 -201 340 -218 359 -218Z" glyph-name="uogonek" horiz-adv-x="649" unicode="&#371;" /><glyph d="M114 242C114 104 163 -16 314 -16C372 -16 427 12 466 54V37C466 9 480 -13 507 -13C533 -13 546 10 546 37V486C546 513 532 536 506 536C479 536 466 514 466 486V167C443 119 394 64 312 64C216 67 194 152 194 257V486C194 513 180 536 153 536C127 536 114 512 114 486ZM334 627C406 627 455 683 455 749C455 815 406 871 334 871C260 871 213 815 213 749C213 683 262 627 334 627ZM334 805C364 805 386 782 386 749C386 717 364 691 334 691C302 691 279 717 279 749C279 782 302 805 334 805Z" glyph-name="uring" horiz-adv-x="649" unicode="&#367;" /><glyph d="M90 499C90 489 94 474 96 469L250 38C263 1 292 -13 323 -13H339C369 -13 391 8 403 42L556 469C558 474 563 489 563 495C563 522 550 536 523 536C502 536 492 520 486 502L338 79H314L168 493C161 512 150 536 127 536C107 536 90 519 90 499Z" glyph-name="v" horiz-adv-x="649" unicode="v" /><glyph d="M81 486 146 31C149 8 165 -13 191 -13H211C234 -13 246 3 253 22L313 201L375 22C381 3 395 -13 419 -13H438C463 -13 479 7 483 31L567 486C572 512 555 536 529 536C503 536 490 515 486 492L424 136L378 270C364 311 353 330 325 330H310C283 330 267 308 255 271L211 138L161 492C158 516 147 536 122 536C95 536 77 513 81 486Z" glyph-name="w" horiz-adv-x="649" unicode="w" /><glyph d="M81 486 146 31C149 8 165 -13 191 -13H211C234 -13 246 3 253 22L313 201L375 22C381 3 395 -13 419 -13H438C463 -13 479 7 483 31L567 486C572 512 555 536 529 536C503 536 490 515 486 492L424 136L378 270C364 311 353 330 325 330H310C283 330 267 308 255 271L211 138L161 492C158 516 147 536 122 536C95 536 77 513 81 486ZM265 661C265 637 285 619 307 619C318 619 333 628 338 636L407 733C412 740 414 748 414 756C414 779 395 799 372 799C361 799 347 791 338 778L273 685C268 678 265 670 265 661Z" glyph-name="wacute" horiz-adv-x="649" unicode="&#7811;" /><glyph d="M81 486 146 31C149 8 165 -13 191 -13H211C234 -13 246 3 253 22L313 201L375 22C381 3 395 -13 419 -13H438C463 -13 479 7 483 31L567 486C572 512 555 536 529 536C503 536 490 515 486 492L424 136L378 270C364 311 353 330 325 330H310C283 330 267 308 255 271L211 138L161 492C158 516 147 536 122 536C95 536 77 513 81 486ZM181 654C181 640 194 630 209 630C217 630 224 632 229 637L322 723L416 637C422 632 429 630 437 630C452 630 465 641 465 654C465 659 463 664 460 668L344 821C339 826 330 828 322 828C315 828 308 826 302 821L186 668C183 664 181 659 181 654Z" glyph-name="wcircumflex" horiz-adv-x="649" unicode="&#373;" /><glyph d="M81 486 146 31C149 8 165 -13 191 -13H211C234 -13 246 3 253 22L313 201L375 22C381 3 395 -13 419 -13H438C463 -13 479 7 483 31L567 486C572 512 555 536 529 536C503 536 490 515 486 492L424 136L378 270C364 311 353 330 325 330H310C283 330 267 308 255 271L211 138L161 492C158 516 147 536 122 536C95 536 77 513 81 486ZM190 728C190 701 212 678 240 678C268 678 290 701 290 728V785C290 812 267 835 240 835C213 835 190 812 190 785ZM362 728C362 700 384 678 412 678C439 678 462 701 462 728V785C462 812 438 835 412 835C385 835 362 813 362 785Z" glyph-name="wdieresis" horiz-adv-x="649" unicode="&#7813;" /><glyph d="M81 486 146 31C149 8 165 -13 191 -13H211C234 -13 246 3 253 22L313 201L375 22C381 3 395 -13 419 -13H438C463 -13 479 7 483 31L567 486C572 512 555 536 529 536C503 536 490 515 486 492L424 136L378 270C364 311 353 330 325 330H310C283 330 267 308 255 271L211 138L161 492C158 516 147 536 122 536C95 536 77 513 81 486ZM403 654C403 630 383 612 361 612C350 612 335 621 330 629L261 726C256 733 254 741 254 749C254 772 273 792 296 792C307 792 321 784 330 771L395 678C400 671 403 663 403 654Z" glyph-name="wgrave" horiz-adv-x="649" unicode="&#7809;" /><glyph d="M212 35C183 -4 168 -13 154 -13C136 -13 115 1 115 24C115 42 129 67 145 89L437 491C455 515 470 535 493 535C515 535 534 515 534 497C534 480 526 458 509 435ZM437 35 140 435C123 458 115 480 115 497C115 515 134 535 156 535C179 535 194 515 212 491L504 89C520 67 534 42 534 24C534 1 513 -13 495 -13C481 -13 466 -4 437 35Z" glyph-name="x" horiz-adv-x="649" unicode="x" /><glyph d="M76 -141C76 -176 112 -183 143 -183C193 -183 218 -150 237 -115L551 446C564 469 570 491 570 500C570 517 558 536 531 536C508 536 496 516 485 496L331 212L172 490C162 508 147 536 123 536C96 536 83 514 83 496C83 477 104 443 108 436L285 130L177 -68C170 -80 152 -101 142 -101C99 -101 76 -113 76 -141Z" glyph-name="y" horiz-adv-x="649" unicode="y" /><glyph d="M76 -141C76 -176 112 -183 143 -183C193 -183 218 -150 237 -115L551 446C564 469 570 491 570 500C570 517 558 536 531 536C508 536 496 516 485 496L331 212L172 490C162 508 147 536 123 536C96 536 83 514 83 496C83 477 104 443 108 436L285 130L177 -68C170 -80 152 -101 142 -101C99 -101 76 -113 76 -141ZM275 689C275 665 295 647 317 647C328 647 343 656 348 664L417 761C422 768 424 776 424 784C424 807 405 827 382 827C371 827 357 819 348 806L283 713C278 706 275 698 275 689Z" glyph-name="yacute" horiz-adv-x="649" unicode="&#253;" /><glyph d="M76 -141C76 -176 112 -183 143 -183C193 -183 218 -150 237 -115L551 446C564 469 570 491 570 500C570 517 558 536 531 536C508 536 496 516 485 496L331 212L172 490C162 508 147 536 123 536C96 536 83 514 83 496C83 477 104 443 108 436L285 130L177 -68C170 -80 152 -101 142 -101C99 -101 76 -113 76 -141ZM185 676C185 662 198 652 213 652C221 652 228 654 233 659L326 745L420 659C426 654 433 652 441 652C456 652 469 663 469 676C469 681 467 686 464 690L348 843C343 848 334 850 326 850C319 850 312 848 306 843L190 690C187 686 185 681 185 676Z" glyph-name="ycircumflex" horiz-adv-x="649" unicode="&#375;" /><glyph d="M76 -141C76 -176 112 -183 143 -183C193 -183 218 -150 237 -115L551 446C564 469 570 491 570 500C570 517 558 536 531 536C508 536 496 516 485 496L331 212L172 490C162 508 147 536 123 536C96 536 83 514 83 496C83 477 104 443 108 436L285 130L177 -68C170 -80 152 -101 142 -101C99 -101 76 -113 76 -141ZM190 699C190 672 212 649 240 649C268 649 290 672 290 699V756C290 783 267 806 240 806C213 806 190 783 190 756ZM362 699C362 671 384 649 412 649C439 649 462 672 462 699V756C462 783 438 806 412 806C385 806 362 784 362 756Z" glyph-name="ydieresis" horiz-adv-x="649" unicode="&#255;" /><glyph d="M104 674C104 665 105 656 109 649L286 339V40C286 12 299 -10 326 -10C353 -10 366 13 366 40V339L537 643C541 650 545 666 545 675C545 692 532 713 513 713C495 713 479 701 473 686L326 417L180 686C171 702 161 713 143 713C121 713 104 694 104 674ZM184 300H464C492 300 514 313 514 348C514 375 492 388 464 388H184C156 388 134 376 134 348C134 312 156 300 184 300ZM184 120H464C492 120 514 133 514 168C514 195 492 208 464 208H184C156 208 134 196 134 168C134 132 156 120 184 120Z" glyph-name="yen" horiz-adv-x="649" unicode="&#165;" /><glyph d="M76 -141C76 -176 112 -183 143 -183C193 -183 218 -150 237 -115L551 446C564 469 570 491 570 500C570 517 558 536 531 536C508 536 496 516 485 496L331 212L172 490C162 508 147 536 123 536C96 536 83 514 83 496C83 477 104 443 108 436L285 130L177 -68C170 -80 152 -101 142 -101C99 -101 76 -113 76 -141ZM404 688C404 664 384 646 362 646C351 646 336 655 331 663L262 760C257 767 255 775 255 783C255 806 274 826 297 826C308 826 322 818 331 805L396 712C401 705 404 697 404 688Z" glyph-name="ygrave" horiz-adv-x="649" unicode="&#7923;" /><glyph d="M114 43C114 25 132 -1 160 -1H500C528 -1 550 12 550 39C550 66 527 79 500 79H223L498 421C506 431 527 458 527 480C527 502 506 524 477 524H169C141 524 119 512 119 484C119 456 142 444 169 444H412L134 96C124 83 114 66 114 43Z" glyph-name="z" horiz-adv-x="649" unicode="z" /><glyph d="M114 43C114 25 132 -1 160 -1H500C528 -1 550 12 550 39C550 66 527 79 500 79H223L498 421C506 431 527 458 527 480C527 502 506 524 477 524H169C141 524 119 512 119 484C119 456 142 444 169 444H412L134 96C124 83 114 66 114 43ZM276 688C276 664 296 646 318 646C329 646 344 655 349 663L418 760C423 767 425 775 425 783C425 806 406 826 383 826C372 826 358 818 349 805L284 712C279 705 276 697 276 688Z" glyph-name="zacute" horiz-adv-x="649" unicode="&#378;" /><glyph d="M114 43C114 25 132 -1 160 -1H500C528 -1 550 12 550 39C550 66 527 79 500 79H223L498 421C506 431 527 458 527 480C527 502 506 524 477 524H169C141 524 119 512 119 484C119 456 142 444 169 444H412L134 96C124 83 114 66 114 43ZM482 815C482 829 469 839 454 839C446 839 439 837 434 832L341 746L247 832C241 837 234 839 226 839C211 839 198 828 198 815C198 810 200 805 203 801L319 648C324 643 333 641 341 641C348 641 355 643 361 648L477 801C480 805 482 810 482 815Z" glyph-name="zcaron" horiz-adv-x="649" unicode="&#382;" /><glyph d="M114 43C114 25 132 -1 160 -1H500C528 -1 550 12 550 39C550 66 527 79 500 79H223L498 421C506 431 527 458 527 480C527 502 506 524 477 524H169C141 524 119 512 119 484C119 456 142 444 169 444H412L134 96C124 83 114 66 114 43ZM264 712C264 685 286 662 314 662H360C388 662 410 685 410 712V757C410 784 388 807 360 807H314C286 807 264 784 264 757Z" glyph-name="zdotaccent" horiz-adv-x="649" unicode="&#380;" /><glyph d="M96 384C96 104 207 -13 326 -13C449 -13 556 92 556 384C556 660 468 773 326 773C189 773 96 658 96 384ZM176 384C176 601 234 693 326 693C429 693 476 600 476 384C476 170 428 69 326 69C236 69 176 166 176 384Z" glyph-name="zero" horiz-adv-x="649" unicode="0" /></font>
</defs>
</svg>
