<?xml version="1.0" standalone="no"?>
<!DOCTYPE svg PUBLIC "-//W3C//DTD SVG 20010904//EN"
 "http://www.w3.org/TR/2001/REC-SVG-20010904/DTD/svg10.dtd">
<svg version="1.0" xmlns="http://www.w3.org/2000/svg"
 width="912.000000pt" height="912.000000pt" viewBox="0 0 912.000000 912.000000"
 preserveAspectRatio="xMidYMid meet">
<metadata>
Created by potrace 1.14, written by Peter Selinger 2001-2017
</metadata>
<g transform="translate(0.000000,912.000000) scale(0.100000,-0.100000)"
fill="#000000" stroke="none">
<path d="M3750 8674 c-1013 -452 -3351 -1493 -3577 -1593 l-173 -76 0 -3462 0
-3463 4555 0 4555 0 0 3479 0 3478 -577 253 c-318 138 -613 267 -655 286 -43
19 -114 50 -158 69 -44 19 -116 51 -160 70 -44 19 -115 50 -157 69 -742 325
-2851 1246 -2854 1245 -2 0 -362 -160 -799 -355z m190 -1588 c0 -14 16 -102
35 -197 48 -231 56 -301 44 -383 -23 -168 -107 -254 -351 -359 -29 -13 -43
-29 -70 -84 l-33 -68 -7 -350 c-3 -192 -6 -572 -7 -842 l-1 -493 1010 0 1010
0 -1 498 c-1 273 -4 662 -8 864 l-6 366 -30 43 c-17 24 -42 49 -55 55 -14 7
-63 30 -110 53 -111 52 -180 114 -220 194 -63 130 -63 211 2 525 l42 202 1002
0 c946 0 1003 -1 1007 -17 3 -10 8 -36 12 -58 3 -22 22 -112 42 -200 45 -203
49 -327 13 -420 -35 -91 -136 -186 -263 -248 -96 -47 -99 -50 -124 -103 -55
-121 -54 -46 -50 -2270 2 -1914 4 -2053 20 -2114 28 -106 44 -124 151 -175
171 -81 265 -196 287 -351 11 -80 1 -186 -36 -363 -13 -64 -29 -142 -35 -174
l-11 -57 -1010 0 -1009 0 0 25 c0 14 -16 100 -35 192 -48 228 -57 312 -44 391
26 164 113 254 340 350 41 18 51 28 80 88 33 67 34 69 40 253 4 102 8 482 8
844 l1 657 -1012 0 -1011 0 6 -842 c4 -505 11 -857 17 -879 16 -57 66 -104
146 -137 147 -60 240 -144 285 -259 37 -94 31 -247 -18 -493 l-39 -195 -1007
-3 -1007 -2 -4 22 c-3 13 -12 59 -20 103 -8 44 -27 134 -41 200 -73 332 -5
497 260 625 95 45 109 60 134 131 42 118 42 132 39 2264 l-3 2050 -30 85 -30
85 -107 52 c-282 140 -339 299 -254 710 14 65 30 144 36 176 l11 57 1010 0
1009 0 0 -24z"/>
</g>
</svg>
