<svg id="icon" xmlns="http://www.w3.org/2000/svg" xmlns:xlink="http://www.w3.org/1999/xlink" viewBox="0 0 114 111.8" shape-rendering="geometricPrecision" text-rendering="geometricPrecision"><polyline id="icon-s-polyline1" points="0,25.3 56.9,0 113.9,24.9 113.9,25.3 113.9,111.8 0,111.8 0,25.3" fill="#2e3192"/><path id="icon-s-path1" d="M39.9,49.1c-.1-1.3-.5-3.6-1.2-3.9-6.9-2.5-4.3-7.4-3.6-12.2h25.2c.4,4.5,3.7,9.6-3.4,12-.7.3-1.3,1.9-1.3,2.9-.1,6.5-.1,13-.1,20.1h25.2c0-7.1,0-14-.1-20.9-.052988-.796496-.455711-1.52872-1.1-2-7-2.3-4.4-7.4-3.6-12.1h25.1c.5,4.5,3.7,9.4-3.2,12.1-.9.3-1.4,2.5-1.4,3.8v49.8c0,1.3.4,3.6,1.2,3.9c6.8,2.5,4.2,7.5,3.5,12.2h-25.2c-.4-4.5-3.7-9.6,3.4-12c.7-.3,1.3-1.9,1.3-2.9.2-6.5.1-13,.1-20.1h-25.2c0,7.1,0,14,.1,20.9.052988.796496.455711,1.52872,1.1,2c7,2.3,4.4,7.4,3.7,12.2h-25.2c-.5-4.6-3.7-9.5,3.3-12.2.8-.3,1.3-2.5,1.3-3.8Z" transform="translate(-11.1-9)" fill="#fff"/></svg>
